<svg xmlns="http://www.w3.org/2000/svg" viewBox="0 0 1920 940"><defs><style>.cls-1{fill:#ffdfca;}.cls-2{fill:#ec9385;}.cls-3{fill:#f49964;}</style></defs><g id="Background"><rect class="cls-1" width="1920" height="939"/></g><g id="Layer_1" data-name="Layer 1"><path class="cls-2" d="M1741.94-63.57c-25,34.35-46.6,85.54-19.89,124.94,20,29.5,56.82,43.51,87.86,58,15.6,7.25,32.24,14.25,45,26.08a79.26,79.26,0,0,1,22.6,38.26c8.59,32.67,1.42,68-5,100.35-6.89,35-15.94,70.67-12,106.55,2.43,22.05,9.26,43.75,22.44,61.8a112.24,112.24,0,0,0,37,31.89V-122H1794.81C1776.17-103.42,1757.47-84.89,1741.94-63.57Z"/><path class="cls-2" d="M0,0V157c33,94,126.19,75.89,161.39,44.48,29.57-26.38,48.51-61,80.45-85.44C277.09,89.1,322.9,86.84,366.7,94.77c23,4.17,45.53,10.44,68.61,14.39a243.29,243.29,0,0,0,69.85,1.55c78.1-9,143-50.15,181.51-110.71Z"/><path class="cls-2" d="M865.42,71.74c30.44,37.31,81,57.14,128.68,50.48C1045.81,115,1094,79.29,1145.46,88.1c39.82,6.81,70.06,38.65,106.19,56.71,72.38,36.21,167.2,10.06,218.71-52.37,22-26.7,36.38-58.66,43.44-92.44H835.17C838.47,26.1,848.78,51.34,865.42,71.74Z"/><path class="cls-2" d="M930.37,843.15c-62.15-34.29-137.72-39.44-206.91-23.54C647.14,837.15,577.85,880.84,526.64,940h495.79C1003,899.5,969.92,865,930.37,843.15Z"/><path class="cls-2" d="M295.9,866.54c-10.64-23.38-8.32-50.24-8.45-75.92s-4.17-53.9-23.34-71c-27.51-24.52-74.23-15.76-101.27-40.79-23.26-21.54-23-60.07-45.18-82.71-23-23.45-63.18-21.06-91-3.59a123.51,123.51,0,0,0-19.15,15L0,631.43V940H402.55c-9.72-4.5-19.69-8.6-29.41-12.73C342.26,914.14,309.81,897.07,295.9,866.54Z"/><path class="cls-2" d="M1902.22,624.29c-90.1,36.66-139.18,153-230.79,184.81-106.5,37-223.25-55.71-330.37-21-65.39,21.22-110,84.62-142.62,151.85H1920V618.32A147.35,147.35,0,0,0,1902.22,624.29Z"/><path class="cls-3" d="M112.58,404.64c-24.23,4.8-30.13,11.6-33.84,42.2a1.76,1.76,0,0,1-3.49,0c-3.72-30.6-9.61-37.4-33.85-42.2a1.76,1.76,0,0,1,0-3.45c24.24-4.79,30.13-11.6,33.85-42.2a1.76,1.76,0,0,1,3.49,0c3.71,30.6,9.61,37.41,33.84,42.2A1.76,1.76,0,0,1,112.58,404.64Z"/><path class="cls-3" d="M781,64.18c-17.68,3.49-22,8.46-24.69,30.79a1.28,1.28,0,0,1-2.55,0c-2.71-22.33-7-27.3-24.7-30.79a1.28,1.28,0,0,1,0-2.52c17.69-3.5,22-8.47,24.7-30.8a1.28,1.28,0,0,1,2.55,0c2.71,22.33,7,27.3,24.69,30.8A1.28,1.28,0,0,1,781,64.18Z"/><path class="cls-3" d="M1666.51,726.13c-22.14,4.38-27.53,10.6-30.92,38.55a1.61,1.61,0,0,1-3.19,0c-3.4-27.95-8.78-34.17-30.93-38.55a1.61,1.61,0,0,1,0-3.16c22.15-4.38,27.53-10.6,30.93-38.56a1.61,1.61,0,0,1,3.19,0c3.39,28,8.78,34.18,30.92,38.56A1.61,1.61,0,0,1,1666.51,726.13Z"/><path class="cls-3" d="M1599.12,683.62c-15,3-18.65,7.18-20.95,26.12a1.09,1.09,0,0,1-2.16,0c-2.3-18.94-6-23.15-21-26.12a1.09,1.09,0,0,1,0-2.14c15-3,18.66-7.18,21-26.12a1.09,1.09,0,0,1,2.16,0c2.3,18.94,5.95,23.15,20.95,26.12A1.09,1.09,0,0,1,1599.12,683.62Z"/><path class="cls-3" d="M1794.16,227.57c-14.35,2.84-17.84,6.87-20,25a1,1,0,0,1-2.07,0c-2.19-18.12-5.69-22.15-20-25a1,1,0,0,1,0-2c14.34-2.84,17.84-6.87,20-25a1,1,0,0,1,2.07,0c2.2,18.12,5.69,22.15,20,25A1,1,0,0,1,1794.16,227.57Z"/><path class="cls-3" d="M342.16,182.57c-14.35,2.84-17.84,6.87-20,25a1,1,0,0,1-2.07,0c-2.19-18.12-5.69-22.15-20-25a1,1,0,0,1,0-2c14.34-2.84,17.84-6.87,20-25a1,1,0,0,1,2.07,0c2.2,18.12,5.69,22.15,20,25A1,1,0,0,1,342.16,182.57Z"/><path class="cls-3" d="M1876.39,545.29c-10.42,2.06-13,5-14.55,18.14a.76.76,0,0,1-1.5,0c-1.6-13.15-4.14-16.08-14.55-18.14a.75.75,0,0,1,0-1.48c10.41-2.06,13-5,14.55-18.15a.76.76,0,0,1,1.5,0c1.59,13.16,4.13,16.09,14.55,18.15A.75.75,0,0,1,1876.39,545.29Z"/><path class="cls-3" d="M1643.53,82.13c-22.09,4.37-27.47,10.57-30.85,38.46a1.6,1.6,0,0,1-3.18,0c-3.39-27.89-8.76-34.09-30.85-38.46a1.6,1.6,0,0,1,0-3.15c22.09-4.37,27.46-10.57,30.85-38.46a1.6,1.6,0,0,1,3.18,0c3.38,27.89,8.76,34.09,30.85,38.46A1.61,1.61,0,0,1,1643.53,82.13Z"/><path class="cls-3" d="M471.43,813.83c-26.85,5.31-33.39,12.85-37.5,46.75a2,2,0,0,1-3.87,0c-4.12-33.9-10.65-41.44-37.5-46.75a2,2,0,0,1,0-3.83c26.85-5.31,33.38-12.85,37.5-46.75a2,2,0,0,1,3.87,0c4.11,33.9,10.65,41.44,37.5,46.75A2,2,0,0,1,471.43,813.83Z"/><path class="cls-3" d="M500.29,762.78c-12.12,2.4-15.07,5.8-16.92,21.1a.88.88,0,0,1-1.75,0c-1.86-15.3-4.81-18.7-16.93-21.1a.88.88,0,0,1,0-1.73c12.12-2.39,15.07-5.8,16.93-21.1a.88.88,0,0,1,1.75,0c1.85,15.3,4.8,18.71,16.92,21.1A.88.88,0,0,1,500.29,762.78Z"/><path class="cls-3" d="M1040.07,815.87c-15.92,3.15-19.8,7.62-22.24,27.72a1.15,1.15,0,0,1-2.29,0c-2.44-20.1-6.31-24.57-22.23-27.72a1.16,1.16,0,0,1,0-2.27c15.92-3.15,19.79-7.62,22.23-27.72a1.15,1.15,0,0,1,2.29,0c2.44,20.1,6.32,24.57,22.24,27.72A1.16,1.16,0,0,1,1040.07,815.87Z"/><path class="cls-3" d="M1190.39,870.47c-10.35,2-12.87,5-14.46,18a.75.75,0,0,1-1.49,0c-1.59-13.07-4.11-16-14.46-18a.75.75,0,0,1,0-1.47c10.35-2,12.87-5,14.46-18a.75.75,0,0,1,1.49,0c1.59,13.07,4.11,16,14.46,18A.75.75,0,0,1,1190.39,870.47Z"/></g></svg>