<svg xmlns="http://www.w3.org/2000/svg" xmlns:xlink="http://www.w3.org/1999/xlink" viewBox="0 0 1920 565"><defs><style>.cls-1{isolation:isolate;}.cls-2{fill:#b3bde8;}.cls-3{fill:#ffcc71;}.cls-4{fill:#a3afd3;}.cls-5{opacity:0.08;}.cls-12,.cls-33,.cls-5,.cls-8{mix-blend-mode:multiply;}.cls-6{fill:#177284;}.cls-7{fill:#ff8380;}.cls-8{opacity:0.15;}.cls-9{fill:#7f7b7d;}.cls-10{fill:#ffc2bd;}.cls-11{fill:#ef9d52;}.cls-12{opacity:0.17;}.cls-13{fill:#e08832;}.cls-14{fill:#f7a561;}.cls-15{fill:#ffa197;}.cls-16{fill:#fff;}.cls-17{fill:#fdce12;}.cls-18{fill:#8c98ba;}.cls-19{fill:#b4d38c;}.cls-20{fill:#c6dba1;}.cls-21{fill:#a48cd3;}.cls-22{fill:#7f66af;}.cls-23{fill:#3fa11b;}.cls-24,.cls-25,.cls-26,.cls-27,.cls-28,.cls-29,.cls-31,.cls-32{opacity:0.43;mix-blend-mode:overlay;}.cls-24{fill:url(#Degradado_sin_nombre_61);}.cls-25{fill:url(#Degradado_sin_nombre_61-2);}.cls-26{fill:url(#Degradado_sin_nombre_61-3);}.cls-27{fill:url(#Degradado_sin_nombre_61-4);}.cls-28{fill:url(#Degradado_sin_nombre_61-5);}.cls-29{fill:url(#Degradado_sin_nombre_61-6);}.cls-30{fill:none;}.cls-31{fill:url(#Degradado_sin_nombre_61-7);}.cls-32{fill:url(#Degradado_sin_nombre_61-8);}.cls-33{fill:#ff642f;}.cls-34{fill:#ececdb;}.cls-35{fill:#ffe5cb;}.cls-36{fill:#ff9069;}.cls-37{fill:#ffd45d;}.cls-38{fill:#3d871e;}.cls-39{fill:#ffa466;}.cls-40{fill:#ef8e4b;}</style><linearGradient id="Degradado_sin_nombre_61" x1="-822.52" y1="916.31" x2="-824.41" y2="904.31" gradientTransform="matrix(0.77, -0.63, 0.63, 0.77, 1784.37, -687.78)" gradientUnits="userSpaceOnUse"><stop offset="0" stop-color="#f7f7f7"/><stop offset="1" stop-color="#fffde0"/></linearGradient><linearGradient id="Degradado_sin_nombre_61-2" x1="-1391.15" y1="2387.97" x2="-1392.62" y2="2378.64" gradientTransform="translate(4515.49 354.03) rotate(56.19)" xlink:href="#Degradado_sin_nombre_61"/><linearGradient id="Degradado_sin_nombre_61-3" x1="-1043.57" y1="2794.89" x2="-1045.04" y2="2785.56" gradientTransform="translate(4646.92 1323.45) rotate(84.38)" xlink:href="#Degradado_sin_nombre_61"/><linearGradient id="Degradado_sin_nombre_61-4" x1="-807.7" y1="996.65" x2="-809.1" y2="987.78" gradientTransform="matrix(0.87, -0.49, 0.49, 0.87, 1900.63, -721.45)" xlink:href="#Degradado_sin_nombre_61"/><linearGradient id="Degradado_sin_nombre_61-5" x1="-1313.48" y1="2375.78" x2="-1314.57" y2="2368.88" gradientTransform="matrix(0.4, 0.92, -0.92, 0.4, 4406.78, 783.6)" xlink:href="#Degradado_sin_nombre_61"/><linearGradient id="Degradado_sin_nombre_61-6" x1="-989.7" y1="2748.5" x2="-990.78" y2="2741.61" gradientTransform="matrix(-0.08, 1, -1, -0.08, 4366.02, 1761.37)" xlink:href="#Degradado_sin_nombre_61"/><linearGradient id="Degradado_sin_nombre_61-7" x1="-293.06" y1="823" x2="-295.26" y2="809.06" gradientTransform="translate(1281.36 -183.61) rotate(-63.75)" xlink:href="#Degradado_sin_nombre_61"/><linearGradient id="Degradado_sin_nombre_61-8" x1="-1533.05" y1="1864.1" x2="-1534.76" y2="1853.27" gradientTransform="matrix(0.85, 0.52, -0.52, 0.85, 4198.45, -370.62)" xlink:href="#Degradado_sin_nombre_61"/></defs><g class="cls-1"><g id="Layer_1" data-name="Layer 1"><rect class="cls-2" width="1920" height="565.5"/><circle class="cls-3" cx="960" cy="372.75" r="192.25"/><path class="cls-4" d="M1920,565V291.86c-169.71-29.09-563-5.88-768.91,68.1-79.17,28.45-146.08,50.63-201.43,67.84-51.11-16.2-111.19-36.35-180.75-61.35C563,292.48,169.71,269.27,0,298.35V565Z"/><g class="cls-5"><path class="cls-6" d="M1831.29,144.33c-13.53-18.78-40.56-19.64-63.72-21.15-43.22-2.8-86.61-14.59-122.11-39.31C1624.54,69.3,1607,19.46,1590.38,0h-189c3.74,27.59,32.33,85.49,49.87,107.18,32.38,40.08,86,62,137.34,56.11,5.17-.59,10.62-1.41,15.43.58,6.14,2.55,9.58,8.95,12.68,14.82,17.59,33.19,41.23,64.95,74.75,82.1,37,19,80.81,17.66,122.41,15.91,3.3-.14,6.84-.36,9.43-2.4,2.38-1.88,3.47-4.92,4.39-7.81a266.65,266.65,0,0,0,12.49-86.56C1840,167.5,1838.57,154.42,1831.29,144.33Z"/></g><path class="cls-7" d="M1744.72,0c-35.21,17.24-66.28,73.12-88.92,105.07-35.06,49.47-19.21,84.54,19.18,122.75,46.19,46,121.43,60,181.17,33.76,18.18-8,35-19.3,54.18-24.46a86,86,0,0,1,9.67-2V0Z"/><g class="cls-8"><path class="cls-9" d="M1643,180.38c8.72,6.14,17,13,26,18.56,24.34,15.1,55.24,20.85,82.41,11.72s49.13-34.45,50.66-63a115.21,115.21,0,0,1-49.9-31.19"/></g><path class="cls-10" d="M1422.8,0c11.64,58.36,63.06,131.7,132.9,145.25,23.73,4.6,40.29-4.11,54.13,4.54,4.62,2.88,8.09,7.11,11.72,11.07,14.17,15.46,32.28,28,52.9,34.06,28.29,8.3,62.08,3.2,86.53-12.58,26-16.77,25.84-47,58.94-59.44,20-7.54,42.12-8.24,63.67-8.2,12.11,0,24.33.23,36.41-.49V0Z"/><path class="cls-11" d="M1729.28,73c-16.91-4.36-20.23-54.55-18.67-72.8h-20.53c-1.28,20.59,0,74.57,10.52,88.72,6.45,8.69,18.57,10.41,29.37,11.43l29.34,2.75a195.82,195.82,0,0,0-3.66-30.14A52.81,52.81,0,0,1,1729.28,73Z"/><path class="cls-11" d="M1801.57,113.47c-4.47-.62-9.1-1.47-12.78-4.09-12.62-8.95-10.08-29.52-10.74-42.76-.11-2.33-1.08-51.73-1.38-66.46h-37.53c-.57,14-1,59.17-1.14,73.13-.3,22.78-1.94,53.25,12.91,72.29,10.85,13.93,25.48,15,41.48,18.12,19.74,3.85,40.25,4.1,60.41,2.74l-1.77-52.8A184.9,184.9,0,0,1,1801.57,113.47Z"/><g class="cls-12"><path class="cls-13" d="M1838.89,162.14a15.32,15.32,0,0,0-3.27-8.1c-4.91-5.74-13.11-4.8-19.79-5.69-8.84-1.16-17.85-2.88-26.57-4.82-6.9-1.53-13.86-3.45-19.75-7.34-14.85-9.8-19.32-29.26-21.48-46.88A436.24,436.24,0,0,1,1744.81,39l-5.94-.66q-.63,17.47-.87,35c-.3,22.78-1.94,53.25,12.91,72.29,10.85,13.93,25.48,15,41.48,18.12a214.82,214.82,0,0,0,46.55,3.39A22.78,22.78,0,0,0,1838.89,162.14Z"/></g><path class="cls-11" d="M1920,163.32c-6.5.28-13,.25-19.53-.09-19.45-1-15.54,23.75-15.89,34.27-.1,2.75,0,5.82,2.2,7.83,1.69,1.53,4.26,2.08,6.68,2.52A227.1,227.1,0,0,0,1920,211Z"/><g class="cls-12"><path class="cls-13" d="M1920,191.58c-11.82-.06-23.7-.83-35.5-2,0,3,.15,5.73.08,7.88-.1,2.75,0,5.82,2.2,7.83,1.69,1.53,4.26,2.08,6.68,2.52A227.1,227.1,0,0,0,1920,211Z"/></g><path class="cls-14" d="M1898.17.16h-77c1.29,97.84-.17,440.37-.8,564.34h77.79Z"/><g class="cls-8"><path class="cls-9" d="M1576,0a252.2,252.2,0,0,0,41.18,45.86c21.24,18.44,70.78,38.63,98.94,38,14.92-.35,29.75-3.35,44.65-2.54,39.12,2.13,71,27.13,104.1,45.23A132.54,132.54,0,0,0,1920,142.67V0Z"/></g><path class="cls-15" d="M1579.67,0c14.56,14.75,40.13,45.7,88.26,59,38.43,10.61,80.79-13.81,118.8-1.81,30.14,9.53,50.82,36.49,76.67,54.64,14.7,10.31,35.26,19.28,56.6,23.48V0Z"/><path class="cls-16" d="M1512,54.85a2.67,2.67,0,0,0-.91-1.26c-1.58-1.2-3.28,2.45-3.52,3.57a9.34,9.34,0,0,0-.35,2.3c0,.45,0,1.9.37,2.21a14.34,14.34,0,0,0-2.26-1.77c-.81-.49-4.18-1.87-5.07-1s.41,2.51,1,3.23c1,1.18,2.61,1.69,4,2.18a14.87,14.87,0,0,0-3.7.64,5,5,0,0,0-2.85,2.32,1.14,1.14,0,0,0-.15.65,1.09,1.09,0,0,0,.36.65c1.85,1.85,6,1,7.92-.27a13.29,13.29,0,0,0-1.06,3.09,4.44,4.44,0,0,0,.53,3.16,2.73,2.73,0,0,0,2.82,1.23,3.34,3.34,0,0,0,1.85-1.48,6.67,6.67,0,0,0,.73-5.87c.79,2.2,4.34,3.3,6.4,3.18,1.06-.05,1.84-.43,1.74-1.67a5.45,5.45,0,0,0-1.37-2.74c-.53-.57-2.56-1.95-3.4-1.76a9.21,9.21,0,0,0,5.23-3.3c.66-.86,1.18-2.06.63-3s-1.89-1.08-3-.88a8.33,8.33,0,0,0-5.47,3.7,13.61,13.61,0,0,0-.07-5A15.89,15.89,0,0,0,1512,54.85Z"/><path class="cls-17" d="M1509.67,67.86c2.22-.15,6.4-3,2.85-4.65-2-.94-5.39,0-5.82,2.4a1.84,1.84,0,0,0,.89,1.82A3.4,3.4,0,0,0,1509.67,67.86Z"/><path class="cls-16" d="M1729.21,228.77a2.67,2.67,0,0,0-.91-1.26c-1.58-1.2-3.28,2.44-3.52,3.56a9.49,9.49,0,0,0-.35,2.3c0,.45,0,1.9.37,2.21a14.34,14.34,0,0,0-2.26-1.77c-.81-.48-4.18-1.87-5.07-.95s.41,2.51,1,3.22c1,1.18,2.61,1.7,4,2.18a14.87,14.87,0,0,0-3.7.64,5,5,0,0,0-2.85,2.32,1.17,1.17,0,0,0-.15.65,1.09,1.09,0,0,0,.36.65c1.85,1.86,6,1,7.92-.27a13.37,13.37,0,0,0-1.06,3.1,4.41,4.41,0,0,0,.53,3.15,2.71,2.71,0,0,0,2.83,1.23,3.29,3.29,0,0,0,1.84-1.47,6.69,6.69,0,0,0,.73-5.88c.79,2.2,4.34,3.3,6.4,3.19,1.06-.06,1.84-.44,1.74-1.68a5.42,5.42,0,0,0-1.37-2.73c-.53-.58-2.56-1.95-3.4-1.77a9.19,9.19,0,0,0,5.23-3.29c.66-.86,1.18-2.07.63-3s-1.89-1.09-3-.89a8.27,8.27,0,0,0-5.46,3.71,13.89,13.89,0,0,0-.08-5A15.43,15.43,0,0,0,1729.21,228.77Z"/><path class="cls-17" d="M1726.84,241.78c2.22-.16,6.4-3,2.85-4.66-2-.93-5.39,0-5.82,2.4a1.84,1.84,0,0,0,.89,1.82A3.48,3.48,0,0,0,1726.84,241.78Z"/><path class="cls-16" d="M1677.87,123.36a3.42,3.42,0,0,0-1.19-1.65c-2.06-1.57-4.28,3.19-4.6,4.65a12.22,12.22,0,0,0-.44,3c0,.59,0,2.48.47,2.89a19.16,19.16,0,0,0-2.94-2.31c-1.06-.63-5.46-2.44-6.62-1.25s.54,3.28,1.31,4.21c1.26,1.54,3.39,2.21,5.23,2.84a19.11,19.11,0,0,0-4.83.84,6.46,6.46,0,0,0-3.72,3,1.57,1.57,0,0,0-.2.85,1.45,1.45,0,0,0,.47.84c2.42,2.42,7.79,1.29,10.33-.35a17.22,17.22,0,0,0-1.38,4,5.79,5.79,0,0,0,.7,4.12,3.54,3.54,0,0,0,3.68,1.6,4.39,4.39,0,0,0,2.41-1.92,8.72,8.72,0,0,0,1-7.67c1,2.87,5.65,4.3,8.34,4.16,1.39-.08,2.41-.57,2.28-2.19a7.14,7.14,0,0,0-1.79-3.57c-.7-.75-3.35-2.54-4.44-2.3a12,12,0,0,0,6.82-4.3c.87-1.12,1.54-2.69.82-3.92s-2.46-1.41-3.87-1.15a10.78,10.78,0,0,0-7.13,4.84,18,18,0,0,0-.1-6.55A18.48,18.48,0,0,0,1677.87,123.36Z"/><path class="cls-17" d="M1674.77,140.33c2.9-.2,8.36-4,3.73-6.08-2.67-1.21-7,.05-7.61,3.14a2.42,2.42,0,0,0,1.17,2.37A4.45,4.45,0,0,0,1674.77,140.33Z"/><path class="cls-16" d="M1890,64.9a3.44,3.44,0,0,0-1.19-1.64c-2.06-1.57-4.28,3.19-4.59,4.65a12.09,12.09,0,0,0-.45,3c0,.59,0,2.48.47,2.88a19.3,19.3,0,0,0-2.94-2.31c-1.06-.63-5.46-2.44-6.62-1.24s.54,3.27,1.31,4.21c1.26,1.53,3.4,2.2,5.23,2.84a19.11,19.11,0,0,0-4.83.84,6.41,6.41,0,0,0-3.71,3,1.57,1.57,0,0,0-.21.84,1.54,1.54,0,0,0,.47.85c2.42,2.42,7.79,1.29,10.33-.35a17.78,17.78,0,0,0-1.38,4,5.78,5.78,0,0,0,.7,4.12,3.55,3.55,0,0,0,3.68,1.61,4.4,4.4,0,0,0,2.41-1.93,8.72,8.72,0,0,0,1-7.67c1,2.88,5.66,4.31,8.34,4.16,1.39-.07,2.41-.57,2.28-2.18a7.14,7.14,0,0,0-1.79-3.57c-.7-.75-3.34-2.55-4.43-2.3a12.06,12.06,0,0,0,6.81-4.31c.87-1.12,1.54-2.69.82-3.91s-2.46-1.41-3.87-1.15a10.8,10.8,0,0,0-7.13,4.83,18,18,0,0,0-.1-6.54A18.88,18.88,0,0,0,1890,64.9Z"/><path class="cls-17" d="M1886.92,81.87c2.9-.19,8.36-4,3.73-6.07-2.67-1.22-7,0-7.6,3.14a2.4,2.4,0,0,0,1.16,2.37A4.39,4.39,0,0,0,1886.92,81.87Z"/><path class="cls-16" d="M1576.91,98.86a3.42,3.42,0,0,0-1.19-1.65c-2.06-1.57-4.28,3.19-4.59,4.65a11.78,11.78,0,0,0-.45,3c0,.59,0,2.48.47,2.89a19.8,19.8,0,0,0-2.94-2.31c-1.06-.63-5.46-2.44-6.62-1.25s.54,3.28,1.31,4.21c1.26,1.54,3.4,2.21,5.23,2.84a19.56,19.56,0,0,0-4.83.84,6.41,6.41,0,0,0-3.71,3,1.58,1.58,0,0,0-.21.85,1.51,1.51,0,0,0,.47.84c2.42,2.43,7.79,1.29,10.33-.35a17.69,17.69,0,0,0-1.38,4,5.78,5.78,0,0,0,.7,4.12,3.54,3.54,0,0,0,3.68,1.6,4.39,4.39,0,0,0,2.41-1.92,8.72,8.72,0,0,0,1-7.67c1,2.87,5.66,4.3,8.34,4.16,1.39-.08,2.41-.57,2.28-2.19a7.14,7.14,0,0,0-1.79-3.57c-.7-.75-3.35-2.54-4.44-2.3a12,12,0,0,0,6.82-4.3c.87-1.12,1.54-2.69.82-3.92s-2.46-1.41-3.87-1.15a10.78,10.78,0,0,0-7.13,4.84,18,18,0,0,0-.1-6.55A18.48,18.48,0,0,0,1576.91,98.86Z"/><path class="cls-17" d="M1573.81,115.83c2.9-.2,8.36-4,3.73-6.08-2.67-1.21-7,0-7.61,3.14a2.44,2.44,0,0,0,1.17,2.38A4.53,4.53,0,0,0,1573.81,115.83Z"/><path class="cls-16" d="M1791.75,205a3.44,3.44,0,0,0-1.19-1.64c-2.06-1.57-4.28,3.19-4.6,4.65a12.08,12.08,0,0,0-.44,3c0,.59,0,2.48.47,2.89a19.23,19.23,0,0,0-2.94-2.32c-1.06-.63-5.46-2.44-6.62-1.24s.54,3.27,1.31,4.21c1.26,1.53,3.39,2.21,5.23,2.84a19.11,19.11,0,0,0-4.83.84,6.46,6.46,0,0,0-3.72,3,1.56,1.56,0,0,0-.2.84,1.48,1.48,0,0,0,.47.85c2.42,2.42,7.79,1.29,10.33-.35a17.22,17.22,0,0,0-1.38,4,5.76,5.76,0,0,0,.7,4.11,3.55,3.55,0,0,0,3.68,1.61,4.4,4.4,0,0,0,2.41-1.93,8.72,8.72,0,0,0,1-7.67c1,2.88,5.65,4.31,8.34,4.16,1.39-.07,2.41-.57,2.28-2.18a7.14,7.14,0,0,0-1.79-3.57c-.7-.75-3.35-2.55-4.44-2.3a12.06,12.06,0,0,0,6.82-4.31c.87-1.12,1.54-2.69.82-3.91s-2.46-1.41-3.87-1.15a10.8,10.8,0,0,0-7.13,4.83,18,18,0,0,0-.1-6.54A18.88,18.88,0,0,0,1791.75,205Z"/><path class="cls-17" d="M1788.65,221.93c2.9-.2,8.36-4,3.73-6.08-2.67-1.22-7,.05-7.61,3.14a2.42,2.42,0,0,0,1.17,2.37A4.45,4.45,0,0,0,1788.65,221.93Z"/><path class="cls-16" d="M1607.89,52.79a2.44,2.44,0,0,0-.84-1.15c-1.44-1.1-3,2.23-3.21,3.25a8.28,8.28,0,0,0-.32,2.1c0,.41,0,1.73.34,2a13.35,13.35,0,0,0-2.06-1.62c-.74-.44-3.82-1.71-4.63-.87s.38,2.29.91,2.94a7.82,7.82,0,0,0,3.66,2,13.31,13.31,0,0,0-3.38.59,4.5,4.5,0,0,0-2.6,2.12,1.1,1.1,0,0,0-.14.59,1.06,1.06,0,0,0,.33.59c1.69,1.7,5.45.9,7.23-.24a12.38,12.38,0,0,0-1,2.82,4.06,4.06,0,0,0,.49,2.88,2.49,2.49,0,0,0,2.58,1.12,3,3,0,0,0,1.68-1.34,6.12,6.12,0,0,0,.67-5.37c.72,2,4,3,5.84,2.91,1-.05,1.68-.4,1.59-1.53a5,5,0,0,0-1.25-2.49c-.49-.53-2.34-1.78-3.1-1.62a8.3,8.3,0,0,0,4.76-3,2.56,2.56,0,0,0,.58-2.73,2.54,2.54,0,0,0-2.71-.81,7.56,7.56,0,0,0-5,3.38,12.6,12.6,0,0,0-.07-4.58A13.06,13.06,0,0,0,1607.89,52.79Z"/><path class="cls-17" d="M1605.72,64.66c2-.14,5.84-2.78,2.6-4.25-1.86-.85-4.92,0-5.32,2.19a1.74,1.74,0,0,0,.82,1.67A3.18,3.18,0,0,0,1605.72,64.66Z"/><path class="cls-16" d="M1839.34,42.64a2.46,2.46,0,0,0-.84-1.16c-1.44-1.09-3,2.24-3.21,3.26a8.21,8.21,0,0,0-.32,2.1c0,.41,0,1.73.34,2a13.78,13.78,0,0,0-2.06-1.61c-.74-.44-3.82-1.71-4.63-.87s.37,2.29.91,2.94a7.82,7.82,0,0,0,3.66,2,13.31,13.31,0,0,0-3.38.59,4.53,4.53,0,0,0-2.6,2.11,1.15,1.15,0,0,0-.14.6,1,1,0,0,0,.33.59c1.69,1.69,5.45.9,7.23-.25a12,12,0,0,0-1,2.83,4.07,4.07,0,0,0,.49,2.88,2.49,2.49,0,0,0,2.58,1.12,3.06,3.06,0,0,0,1.68-1.35,6.09,6.09,0,0,0,.67-5.36c.72,2,4,3,5.84,2.91,1,0,1.68-.4,1.59-1.53a5,5,0,0,0-1.25-2.5c-.49-.52-2.34-1.78-3.1-1.61a8.35,8.35,0,0,0,4.76-3,2.58,2.58,0,0,0,.58-2.74,2.56,2.56,0,0,0-2.71-.8,7.56,7.56,0,0,0-5,3.38,12.59,12.59,0,0,0-.07-4.58A14.47,14.47,0,0,0,1839.34,42.64Z"/><path class="cls-17" d="M1837.17,54.51c2-.14,5.84-2.78,2.6-4.25-1.86-.85-4.92,0-5.32,2.19a1.7,1.7,0,0,0,.82,1.66A3.11,3.11,0,0,0,1837.17,54.51Z"/><path class="cls-7" d="M282.06,105.07C259.42,73.12,228.35,17.24,193.14,0H0V234.2a89.65,89.65,0,0,1,27.53,2.92c19.17,5.16,36,16.48,54.17,24.46,59.75,26.23,135,12.21,181.17-33.76C301.27,189.61,317.12,154.54,282.06,105.07Z"/><g class="cls-8"><path class="cls-9" d="M314,178.22c-9.75,6.52-19,13.75-29.14,19.72-27.26,16-61.87,22.15-92.29,12.44s-55-36.6-56.74-66.9a130.13,130.13,0,0,0,55.88-33.14"/></g><path class="cls-15" d="M0,0V105.61c20.83,4.3,42.5,3.72,63.87,3.69,22.93,0,46.43.7,67.75,8.73,35.23,13.26,35.08,45.41,62.72,63.25,26,16.8,62,22.22,92.09,13.39,21.94-6.44,41.21-19.79,56.29-36.25,3.86-4.21,12.5-12.18,17.41-15.26,14.73-9.2,41.81-15.85,59.42-16.67,65.7-3.07,95.89-68.69,111-126.49Z"/><path class="cls-11" d="M225.5.16c1.57,18.25-1.76,68.44-18.67,72.8a52.81,52.81,0,0,1-26.37,0,197.06,197.06,0,0,0-3.66,30.14l29.34-2.75c10.8-1,22.92-2.74,29.37-11.43C246,74.73,247.31,20.75,246,.16Z"/><path class="cls-11" d="M197,.16H159.44c-.3,14.73-1.27,64.13-1.38,66.46-.66,13.24,1.88,33.81-10.74,42.76-3.68,2.62-8.3,3.47-12.78,4.09a184.9,184.9,0,0,1-49.46.17l-1.77,52.8c20.16,1.36,40.67,1.11,60.41-2.74,16-3.12,30.63-4.19,41.49-18.12,14.84-19,13.2-49.51,12.9-72.29C197.93,59.33,197.54,14.11,197,.16Z"/><g class="cls-12"><path class="cls-13" d="M97.23,162.14a15.23,15.23,0,0,1,3.26-8.1c4.91-5.74,13.11-4.8,19.79-5.69,8.84-1.16,17.85-2.88,26.57-4.82,6.9-1.53,13.86-3.45,19.75-7.34,14.85-9.8,19.32-29.26,21.48-46.88A436.24,436.24,0,0,0,191.3,39l5.94-.66q.63,17.47.87,35c.3,22.78,1.94,53.25-12.9,72.29-10.86,13.93-25.48,15-41.49,18.12a214.78,214.78,0,0,1-46.55,3.39A22.78,22.78,0,0,1,97.23,162.14Z"/></g><path class="cls-11" d="M35.64,161.14A206,206,0,0,1,0,159.91v49.22a212.38,212.38,0,0,0,42.65-3.37c2.42-.43,5-1,6.68-2.51,2.23-2,2.3-5.08,2.21-7.84C51.19,184.89,55.09,160.12,35.64,161.14Z"/><g class="cls-12"><path class="cls-13" d="M51.62,187.53A341.58,341.58,0,0,1,0,189.09v20a212.38,212.38,0,0,0,42.65-3.37c2.42-.43,5-1,6.68-2.51,2.23-2,2.3-5.08,2.21-7.84C51.46,193.27,51.57,190.52,51.62,187.53Z"/></g><path class="cls-14" d="M114.94.16h-77V564.5h77.79C115.11,440.53,113.64,98,114.94.16Z"/><g class="cls-8"><path class="cls-9" d="M0,0V142.38c25.14,2.32,50.87-3.78,73-15.88,33.05-18.1,65-43.1,104.1-45.23,14.89-.81,29.73,2.19,44.65,2.54,28.16.68,57.11-7.6,78.9-25.39C328.34,35.8,343.39,10.3,350.75,0Z"/></g><path class="cls-10" d="M0,0V137.57C27.32,136,55.67,125,74.46,111.82,100.31,93.67,121,66.71,151.13,57.18c38-12,79.66,9.41,118.8,1.81C316.87,49.87,344,14.75,358.57,0Z"/><path class="cls-16" d="M425.82,54.85a2.6,2.6,0,0,1,.91-1.26c1.58-1.2,3.28,2.45,3.52,3.57a8.88,8.88,0,0,1,.34,2.3c0,.45,0,1.9-.36,2.21a14.34,14.34,0,0,1,2.26-1.77c.81-.49,4.18-1.87,5.07-1s-.42,2.51-1,3.23c-1,1.18-2.61,1.69-4,2.18a14.87,14.87,0,0,1,3.7.64,5,5,0,0,1,2.85,2.32,1.14,1.14,0,0,1,.15.65,1.09,1.09,0,0,1-.36.65c-1.85,1.85-6,1-7.92-.27A13.29,13.29,0,0,1,432,71.43a4.44,4.44,0,0,1-.53,3.16,2.74,2.74,0,0,1-2.83,1.23,3.35,3.35,0,0,1-1.84-1.48,6.67,6.67,0,0,1-.73-5.87c-.79,2.2-4.34,3.3-6.4,3.18-1.07-.05-1.84-.43-1.74-1.67a5.37,5.37,0,0,1,1.37-2.74c.53-.57,2.56-1.95,3.4-1.76a9.21,9.21,0,0,1-5.23-3.3c-.67-.86-1.18-2.06-.63-3s1.89-1.08,3-.88A8.29,8.29,0,0,1,425.3,62a13.83,13.83,0,0,1,.08-5A15.89,15.89,0,0,1,425.82,54.85Z"/><path class="cls-17" d="M428.19,67.86c-2.22-.15-6.4-3-2.86-4.65,2.05-.94,5.4,0,5.83,2.4a1.88,1.88,0,0,1-.89,1.82A3.4,3.4,0,0,1,428.19,67.86Z"/><path class="cls-16" d="M208.64,228.77a2.69,2.69,0,0,1,.92-1.26c1.58-1.2,3.28,2.44,3.52,3.56a9,9,0,0,1,.34,2.3c0,.45,0,1.9-.36,2.21a14.73,14.73,0,0,1,2.25-1.77c.81-.48,4.19-1.87,5.08-.95s-.42,2.51-1,3.22c-1,1.18-2.61,1.7-4,2.18a14.87,14.87,0,0,1,3.7.64,5,5,0,0,1,2.85,2.32,1.17,1.17,0,0,1,.15.65,1.09,1.09,0,0,1-.36.65c-1.85,1.86-6,1-7.92-.27a13.37,13.37,0,0,1,1.06,3.1,4.41,4.41,0,0,1-.53,3.15,2.71,2.71,0,0,1-2.83,1.23,3.29,3.29,0,0,1-1.84-1.47,6.69,6.69,0,0,1-.73-5.88c-.79,2.2-4.34,3.3-6.4,3.19-1.07-.06-1.84-.44-1.75-1.68a5.5,5.5,0,0,1,1.37-2.73c.54-.58,2.57-1.95,3.41-1.77a9.19,9.19,0,0,1-5.23-3.29c-.67-.86-1.18-2.07-.63-3s1.89-1.09,3-.89a8.27,8.27,0,0,1,5.46,3.71,13.89,13.89,0,0,1,.08-5A17.07,17.07,0,0,1,208.64,228.77Z"/><path class="cls-17" d="M211,241.78c-2.22-.16-6.4-3-2.86-4.66,2.05-.93,5.39,0,5.83,2.4a1.86,1.86,0,0,1-.89,1.82A3.48,3.48,0,0,1,211,241.78Z"/><path class="cls-16" d="M260,123.36a3.42,3.42,0,0,1,1.19-1.65c2.06-1.57,4.28,3.19,4.59,4.65a11.78,11.78,0,0,1,.45,3c0,.59,0,2.48-.47,2.89a18.69,18.69,0,0,1,2.94-2.31c1.06-.63,5.46-2.44,6.62-1.25s-.54,3.28-1.31,4.21c-1.26,1.54-3.4,2.21-5.23,2.84a19.11,19.11,0,0,1,4.83.84,6.41,6.41,0,0,1,3.71,3,1.58,1.58,0,0,1,.21.85,1.51,1.51,0,0,1-.47.84c-2.42,2.42-7.79,1.29-10.34-.35a17.25,17.25,0,0,1,1.39,4,5.79,5.79,0,0,1-.7,4.12,3.54,3.54,0,0,1-3.68,1.6,4.39,4.39,0,0,1-2.41-1.92,8.72,8.72,0,0,1-1-7.67c-1,2.87-5.66,4.3-8.34,4.16-1.39-.08-2.41-.57-2.28-2.19a7.14,7.14,0,0,1,1.79-3.57c.7-.75,3.34-2.54,4.44-2.3a12,12,0,0,1-6.82-4.3c-.87-1.12-1.54-2.69-.82-3.92s2.46-1.41,3.87-1.15a10.78,10.78,0,0,1,7.13,4.84,18,18,0,0,1,.1-6.55A18.48,18.48,0,0,1,260,123.36Z"/><path class="cls-17" d="M263.09,140.33c-2.9-.2-8.36-4-3.73-6.08,2.67-1.21,7,.05,7.6,3.14a2.4,2.4,0,0,1-1.16,2.37A4.47,4.47,0,0,1,263.09,140.33Z"/><path class="cls-16" d="M47.84,64.9A3.48,3.48,0,0,1,49,63.26c2.07-1.57,4.29,3.19,4.6,4.65a12.09,12.09,0,0,1,.45,3c0,.59,0,2.48-.48,2.88a19.88,19.88,0,0,1,2.95-2.31c1.05-.63,5.45-2.44,6.62-1.24s-.54,3.27-1.31,4.21c-1.26,1.53-3.4,2.2-5.23,2.84a19.18,19.18,0,0,1,4.83.84,6.44,6.44,0,0,1,3.71,3,1.57,1.57,0,0,1,.21.84,1.49,1.49,0,0,1-.48.85c-2.41,2.42-7.78,1.29-10.33-.35a17.34,17.34,0,0,1,1.39,4,5.83,5.83,0,0,1-.7,4.12,3.56,3.56,0,0,1-3.68,1.61,4.4,4.4,0,0,1-2.41-1.93,8.72,8.72,0,0,1-1-7.67c-1,2.88-5.66,4.31-8.34,4.16-1.39-.07-2.41-.57-2.28-2.18a7.14,7.14,0,0,1,1.79-3.57c.69-.75,3.34-2.55,4.43-2.3A12.06,12.06,0,0,1,37,74.46c-.87-1.12-1.54-2.69-.83-3.91S38.63,69.14,40,69.4a10.8,10.8,0,0,1,7.13,4.83,18,18,0,0,1,.1-6.54A18.88,18.88,0,0,1,47.84,64.9Z"/><path class="cls-17" d="M50.94,81.87c-2.9-.19-8.36-4-3.73-6.07,2.67-1.22,7,0,7.6,3.14a2.41,2.41,0,0,1-1.16,2.37A4.39,4.39,0,0,1,50.94,81.87Z"/><path class="cls-16" d="M361,98.86a3.46,3.46,0,0,1,1.18-1.65c2.07-1.57,4.29,3.19,4.6,4.65a12.24,12.24,0,0,1,.45,3c0,.59,0,2.48-.47,2.89a19.3,19.3,0,0,1,2.94-2.31c1.06-.63,5.45-2.44,6.62-1.25s-.54,3.28-1.31,4.21c-1.26,1.54-3.4,2.21-5.23,2.84a19.56,19.56,0,0,1,4.83.84,6.41,6.41,0,0,1,3.71,3,1.58,1.58,0,0,1,.21.85,1.47,1.47,0,0,1-.48.84c-2.41,2.43-7.78,1.29-10.33-.35a17.25,17.25,0,0,1,1.39,4,5.83,5.83,0,0,1-.7,4.12,3.55,3.55,0,0,1-3.68,1.6,4.39,4.39,0,0,1-2.41-1.92,8.72,8.72,0,0,1-1-7.67c-1,2.87-5.66,4.3-8.34,4.16-1.39-.08-2.41-.57-2.28-2.19a7.14,7.14,0,0,1,1.79-3.57c.69-.75,3.34-2.54,4.43-2.3a12,12,0,0,1-6.81-4.3c-.87-1.12-1.54-2.69-.83-3.92s2.47-1.41,3.88-1.15a10.78,10.78,0,0,1,7.13,4.84,18,18,0,0,1,.1-6.55A18.48,18.48,0,0,1,361,98.86Z"/><path class="cls-17" d="M364.05,115.83c-2.9-.2-8.36-4-3.73-6.08,2.67-1.21,7,0,7.6,3.14a2.44,2.44,0,0,1-1.16,2.38A4.53,4.53,0,0,1,364.05,115.83Z"/><path class="cls-16" d="M146.11,205a3.44,3.44,0,0,1,1.19-1.64c2.06-1.57,4.28,3.19,4.59,4.65a12.09,12.09,0,0,1,.45,3c0,.59,0,2.48-.47,2.89a18.75,18.75,0,0,1,2.94-2.32c1.06-.63,5.46-2.44,6.62-1.24s-.54,3.27-1.31,4.21c-1.26,1.53-3.4,2.21-5.23,2.84a19.11,19.11,0,0,1,4.83.84,6.41,6.41,0,0,1,3.71,3,1.57,1.57,0,0,1,.21.84,1.54,1.54,0,0,1-.47.85c-2.42,2.42-7.79,1.29-10.34-.35a17.25,17.25,0,0,1,1.39,4,5.81,5.81,0,0,1-.7,4.11,3.55,3.55,0,0,1-3.68,1.61,4.4,4.4,0,0,1-2.41-1.93,8.72,8.72,0,0,1-1-7.67c-1,2.88-5.66,4.31-8.34,4.16-1.39-.07-2.41-.57-2.28-2.18a7.14,7.14,0,0,1,1.79-3.57c.7-.75,3.34-2.55,4.43-2.3a12.06,12.06,0,0,1-6.81-4.31c-.87-1.12-1.54-2.69-.82-3.91s2.46-1.41,3.87-1.15a10.8,10.8,0,0,1,7.13,4.83,18,18,0,0,1,.1-6.54A18.88,18.88,0,0,1,146.11,205Z"/><path class="cls-17" d="M149.21,221.93c-2.9-.2-8.36-4-3.73-6.08,2.67-1.22,7,.05,7.6,3.14a2.4,2.4,0,0,1-1.16,2.37A4.47,4.47,0,0,1,149.21,221.93Z"/><path class="cls-16" d="M330,52.79a2.42,2.42,0,0,1,.83-1.15c1.45-1.1,3,2.23,3.22,3.25a8.27,8.27,0,0,1,.31,2.1c0,.41,0,1.73-.33,2a13.35,13.35,0,0,1,2.06-1.62c.74-.44,3.82-1.71,4.63-.87s-.38,2.29-.91,2.94a7.82,7.82,0,0,1-3.66,2,13.31,13.31,0,0,1,3.38.59,4.45,4.45,0,0,1,2.59,2.12,1,1,0,0,1,.15.59,1.06,1.06,0,0,1-.33.59c-1.69,1.7-5.45.9-7.23-.24a12.38,12.38,0,0,1,1,2.82,4.06,4.06,0,0,1-.49,2.88,2.49,2.49,0,0,1-2.58,1.12,3,3,0,0,1-1.68-1.34,6.12,6.12,0,0,1-.67-5.37c-.72,2-4,3-5.84,2.91-1-.05-1.68-.4-1.59-1.53a5,5,0,0,1,1.25-2.49c.49-.53,2.34-1.78,3.1-1.62a8.3,8.3,0,0,1-4.76-3,2.56,2.56,0,0,1-.58-2.73,2.54,2.54,0,0,1,2.71-.81,7.56,7.56,0,0,1,5,3.38,12.6,12.6,0,0,1,.07-4.58A13.06,13.06,0,0,1,330,52.79Z"/><path class="cls-17" d="M332.14,64.66c-2-.14-5.84-2.78-2.61-4.25,1.87-.85,4.92,0,5.32,2.19a1.71,1.71,0,0,1-.81,1.67A3.18,3.18,0,0,1,332.14,64.66Z"/><path class="cls-16" d="M98.52,42.64a2.46,2.46,0,0,1,.84-1.16c1.44-1.09,3,2.24,3.21,3.26a8.21,8.21,0,0,1,.32,2.1c0,.41,0,1.73-.34,2a13.29,13.29,0,0,1,2.06-1.61c.74-.44,3.82-1.71,4.63-.87s-.38,2.29-.91,2.94a7.82,7.82,0,0,1-3.66,2,13.31,13.31,0,0,1,3.38.59,4.53,4.53,0,0,1,2.6,2.11,1.15,1.15,0,0,1,.14.6,1.09,1.09,0,0,1-.33.59c-1.69,1.69-5.45.9-7.23-.25a12.46,12.46,0,0,1,1,2.83,4.07,4.07,0,0,1-.49,2.88,2.49,2.49,0,0,1-2.58,1.12,3.06,3.06,0,0,1-1.68-1.35,6.09,6.09,0,0,1-.67-5.36c-.72,2-4,3-5.84,2.91-1,0-1.68-.4-1.59-1.53a5,5,0,0,1,1.25-2.5c.49-.52,2.34-1.78,3.1-1.61a8.35,8.35,0,0,1-4.76-3,2.58,2.58,0,0,1-.58-2.74,2.56,2.56,0,0,1,2.71-.8,7.56,7.56,0,0,1,5,3.38,12.59,12.59,0,0,1,.07-4.58A13.06,13.06,0,0,1,98.52,42.64Z"/><path class="cls-17" d="M100.69,54.51c-2-.14-5.84-2.78-2.6-4.25,1.86-.85,4.92,0,5.32,2.19a1.72,1.72,0,0,1-.82,1.66A3.11,3.11,0,0,1,100.69,54.51Z"/><path class="cls-18" d="M1920,391.57c-146.48-19.41-504.56-37.21-707.57-16.93C1008.69,395,588.09,490.58,588.09,490.58c52.46,31.47,127,55.77,214.49,74.42H1920Z"/><path class="cls-19" d="M1920,565V493.67c-32.91-4.41-211.21-9.78-245.75-11.48-51.68-2.55-103.76-1.49-155.39.89-109.1,5-218.8,15.42-327.41,7.71-116.29-8.25-227.34-37.07-344.56-37.14-80,0-162.84,13.19-238.31-1.72-83.14-16.42-137.45-63.47-220-80.75-57.75-12.09-173.62,16.89-301.63-13-23.61-5.51-66.55-27-86.92-36.07V565Z"/><path class="cls-20" d="M1920,565V366.44c-108.86-1.77-363.61,9.29-468.93,23.85-94.23,13-187.47,28.88-276.31,50.78-62.14,15.32-121.92,33.54-184.34,48.49-159.15,38.13-334.06,54.39-507,50.75-49.62-1-99.8-3.67-148.56,1.59C298.48,545.82,118,554,82,558.85A663.92,663.92,0,0,1,0,564.4v.6Z"/><path class="cls-21" d="M1913.13,545.72c.51-3.23,9.39-59.52-6.84-69.13s-26.17,23.88-26.57,25.31c.24-2.26,10.1-91.62-20.43-101.38-30.93-9.9-27.21,37.1-27.21,37.1s-50.72-118.12-79.16-92.15S1777,435.76,1777,435.76s-24.11-15.45-27.21,3.1c-2.88,17.27,45.68,67.76,52.42,74.66-4.09-4-23.14-21.08-31.39-2.91-7.61,16.74,16.41,44.71,25.28,54.23h46.72c-5.83-4-11.49-8.33-17-13-.36-.31.11-.9.5-.65,7.27,4.6,14.59,9.17,22,13.6h18.5q-1.73-5.05-3.5-10.08a1.78,1.78,0,0,1-.37-1c-1.37-3.82-2.76-7.63-4.22-11.42q-3.22-8.31-6.63-16.55c-13.33-7.12-27.22-13.81-39.86-22.05-.52-.33-.19-1.26.44-1,12.8,4.4,25.15,10.92,37.09,17.5q-8.22-19.47-17.44-38.5a1.85,1.85,0,0,1-2.43.93,509,509,0,0,1-55-29.48.6.6,0,0,1,.61-1c18,10,36.91,19,55.71,27.39q-8-16.43-16.93-32.28a1.55,1.55,0,0,1-1.8-1c-1.9-5.26-10.54-9.69-14.9-12.75-4.76-3.34-9.87-6.24-14.47-9.79-.43-.33-.21-1.15.4-1,7.26,2.33,14,6.66,20.23,11,1.23.84,2.86,1.81,4.52,2.91-8-13.86-16.27-27.51-24.7-41.12-3.72-1.58-7.3-3.45-11.06-4.93-4.27-1.69-8.72-2.84-13-4.46-1.18-.44-1.12-2.47.32-2.36a54.42,54.42,0,0,1,20.11,5.9q-6.78-10.9-13.62-21.83c-.47-.76.69-1.68,1.26-1a469,469,0,0,1,31,44.94,108.38,108.38,0,0,1-1.12-24.76.94.94,0,0,1,1.84-.25,104.15,104.15,0,0,1,3,28.49,1.53,1.53,0,0,1-.84,1.29c8.74,14.57,16.88,29.52,24.56,44.59a82.11,82.11,0,0,1,.89-17.39c.23-1.33,2-.83,2.16.29a242.66,242.66,0,0,1,.86,24.87q2.87,5.71,5.64,11.44,3.15,6.5,6.17,13.06c1.39-10.36,4.15-20.73,5.74-31,1.93-12.55,2.46-25.6,5.4-38,.16-.69,1.11-.48,1.16.15.9,11.95-1.22,24.36-2.86,36.19-1.71,12.38-2.91,26-7,37.85l0,0q5.52,12.12,10.66,24.42l.62.35a1.71,1.71,0,0,1,.58,2.56c1.81,4.4,3.6,8.81,5.33,13.24l2.69,6.87c1.21-7.76,2.49-15.5,3.44-23.3,1.08-8.79,1.6-17.78,3.44-26.45.12-.56.89-.37.93.13,1.68,18.13-1.5,38.4-5.22,56.31q2.33,6,4.55,12.16h1.53c4-9.93,7.62-20.08,12-29.79.18-.42.8-.19.81.22.15,10-4.57,20.15-9,29.57H1920V535.38C1915.33,537.75,1913.4,544.66,1913.13,545.72Z"/><path class="cls-22" d="M1826.39,551.24c-.39-.25-.86.34-.5.65,5.47,4.62,11.13,8.92,17,13h5.53C1841,560.41,1833.66,555.84,1826.39,551.24Z"/><path class="cls-22" d="M1866.74,552.68c3.72-17.91,6.9-38.18,5.22-56.31,0-.5-.81-.69-.93-.13-1.84,8.67-2.36,17.66-3.44,26.45-.95,7.8-2.23,15.54-3.44,23.3l-2.69-6.87c-1.73-4.43-3.52-8.84-5.33-13.24a1.71,1.71,0,0,0-.58-2.56l-.62-.35q-5.13-12.3-10.66-24.42l0,0c4.13-11.82,5.33-25.47,7-37.85,1.64-11.83,3.76-24.24,2.86-36.19,0-.63-1-.84-1.16-.15-2.94,12.36-3.47,25.41-5.4,38-1.59,10.31-4.35,20.68-5.74,31q-3-6.56-6.17-13.06-2.78-5.73-5.64-11.44a242.66,242.66,0,0,0-.86-24.87c-.12-1.12-1.93-1.62-2.16-.29a82.11,82.11,0,0,0-.89,17.39c-7.68-15.07-15.82-30-24.56-44.59a1.53,1.53,0,0,0,.84-1.29,104.15,104.15,0,0,0-3-28.49.94.94,0,0,0-1.84.25,108.38,108.38,0,0,0,1.12,24.76,469,469,0,0,0-31-44.94c-.57-.71-1.73.21-1.26,1q6.82,10.93,13.62,21.83a54.42,54.42,0,0,0-20.11-5.9c-1.44-.11-1.5,1.92-.32,2.36,4.29,1.62,8.74,2.77,13,4.46,3.76,1.48,7.34,3.35,11.06,4.93,8.43,13.61,16.73,27.26,24.7,41.12-1.66-1.1-3.29-2.07-4.52-2.91-6.24-4.31-13-8.64-20.23-11-.61-.2-.83.62-.4,1,4.6,3.55,9.71,6.45,14.47,9.79,4.36,3.06,13,7.49,14.9,12.75a1.55,1.55,0,0,0,1.8,1q8.85,15.88,16.93,32.28c-18.8-8.42-37.7-17.4-55.71-27.39a.6.6,0,0,0-.61,1,509,509,0,0,0,55,29.48,1.85,1.85,0,0,0,2.43-.93q9.21,19,17.44,38.5c-11.94-6.58-24.29-13.1-37.09-17.5-.63-.22-1,.71-.44,1,12.64,8.24,26.53,14.93,39.86,22.05q3.4,8.24,6.63,16.55c1.46,3.79,2.85,7.6,4.22,11.42a1.78,1.78,0,0,0,.37,1q1.78,5,3.5,10.08h4.41Q1869.07,558.73,1866.74,552.68Z"/><path class="cls-22" d="M1885.64,535.27c0-.41-.63-.64-.81-.22-4.39,9.71-8,19.86-12,29.79h3.85C1881.07,555.42,1885.79,545.26,1885.64,535.27Z"/><path class="cls-23" d="M1748.14,564.84a1,1,0,0,0,.13.16s0-.1,0-.16Z"/><path class="cls-23" d="M1747.87,564.3a2.29,2.29,0,0,1,.54-1.91c.06-1.28.1-2.57.12-3.85a151.84,151.84,0,0,0-.91-18.86,2,2,0,0,1-1.37-.58c-.85-.91-.52-2.74.68-5l-.09-.68a301.73,301.73,0,0,0-9.53-41.72,32.58,32.58,0,0,1-2.18-4.66.93.93,0,0,0-.05.1c3.63,15.43,6.8,31,8.08,46.69a156.12,156.12,0,0,1,.18,24.46c-.17,2.19-.39,4.37-.68,6.54h5.48A1.45,1.45,0,0,1,1747.87,564.3Z"/><path class="cls-23" d="M1725.09,546.89c7.69,6.88,15.73,10.44,18,8s-2.19-10.09-9.88-17-15.73-10.44-18-8S1717.4,540,1725.09,546.89Zm-5-7.52c-2.15-2.63-3.2-5.32-2.34-6s3.28.88,5.42,3.5,3.19,5.33,2.34,6S1722.24,542,1720.1,539.37Z"/><path class="cls-23" d="M1725.52,542.87c.85-.69-.19-3.39-2.34-6s-4.57-4.19-5.42-3.5.19,3.39,2.34,6S1724.67,543.57,1725.52,542.87Z"/><path class="cls-24" d="M1725.52,542.87c.85-.69-.19-3.39-2.34-6s-4.57-4.19-5.42-3.5.19,3.39,2.34,6S1724.67,543.57,1725.52,542.87Z"/><path class="cls-23" d="M1760.11,532.7c5.88-5.45,9.23-11.42,7.46-13.32s-8,1-13.86,6.4a34.06,34.06,0,0,0-6.78,8.33q.39,2.77.69,5.57C1750.26,539.88,1755.29,537.15,1760.11,532.7Zm-.22-10.23c2.19-1.47,4.35-2.08,4.83-1.37s-.92,2.47-3.11,3.94-4.35,2.08-4.83,1.37S1757.7,523.94,1759.89,522.47Z"/><path class="cls-23" d="M1746.25,539.1a2,2,0,0,0,1.37.58q-.3-2.79-.69-5.57C1745.73,536.36,1745.4,538.19,1746.25,539.1Z"/><path class="cls-23" d="M1761.61,525c2.19-1.47,3.59-3.23,3.11-3.94s-2.64-.1-4.83,1.37-3.58,3.23-3.11,3.94S1759.42,526.51,1761.61,525Z"/><path class="cls-25" d="M1761.61,525c2.19-1.47,3.59-3.23,3.11-3.94s-2.64-.1-4.83,1.37-3.58,3.23-3.11,3.94S1759.42,526.51,1761.61,525Z"/><path class="cls-23" d="M1776,557c-.65-2.52-7.48-2.92-15.24-.9-6,1.55-10.73,4.07-12.33,6.3,0,.82-.08,1.64-.13,2.45h16.12C1771.5,562.77,1776.6,559.36,1776,557Zm-7.93,2.18c-2.62.26-4.82-.22-4.9-1.08s2-1.75,4.6-2,4.82.22,4.9,1.07S1770.68,558.91,1768.05,559.17Z"/><path class="cls-23" d="M1747.87,564.3a1.45,1.45,0,0,0,.27.54h.14c0-.81.09-1.63.13-2.45A2.29,2.29,0,0,0,1747.87,564.3Z"/><path class="cls-23" d="M1767.75,556.09c-2.62.25-4.68,1.15-4.6,2s2.28,1.34,4.9,1.08,4.69-1.16,4.6-2S1770.37,555.83,1767.75,556.09Z"/><path class="cls-26" d="M1767.75,556.09c-2.62.25-4.68,1.15-4.6,2s2.28,1.34,4.9,1.08,4.69-1.16,4.6-2S1770.37,555.83,1767.75,556.09Z"/><path class="cls-23" d="M1691.92,560.93a1.7,1.7,0,0,1,.65-1.32c.21-.93.41-1.86.59-2.79A112.22,112.22,0,0,0,1695,543a1.53,1.53,0,0,1-.93-.6c-.49-.77,0-2.06,1.15-3.55,0-.17,0-.34,0-.5a199.65,199.65,0,0,0-.77-24,24,24,0,0,1-1-2.78c-.13.34-.27.67-.41,1a202.2,202.2,0,0,1-.6,25.6,114.41,114.41,0,0,1-3,17.82,86.94,86.94,0,0,1-2.79,8.87h4.6c.32-1.11.63-2.23.91-3.35A1.37,1.37,0,0,1,1691.92,560.93Z"/><path class="cls-23" d="M1689.65,553.42c1.95-1.53-.28-7.64-5-13.64s-10.09-9.65-12-8.13.28,7.63,5,13.64S1687.7,554.94,1689.65,553.42ZM1675,539.17c-1.22-2.19-1.63-4.29-.92-4.68s2.27,1.06,3.49,3.25,1.63,4.29.92,4.69S1676.17,541.37,1675,539.17Z"/><path class="cls-23" d="M1678.45,542.43c.71-.4.3-2.49-.92-4.69s-2.78-3.65-3.49-3.25-.3,2.49.92,4.68S1677.74,542.82,1678.45,542.43Z"/><path class="cls-27" d="M1678.45,542.43c.71-.4.3-2.49-.92-4.69s-2.78-3.65-3.49-3.25-.3,2.49.92,4.68S1677.74,542.82,1678.45,542.43Z"/><path class="cls-23" d="M1704.94,539.52c5-3.2,8.2-7.11,7.16-8.73s-5.92-.33-10.92,2.87a25,25,0,0,0-6,5.17c-.06,1.38-.13,2.76-.22,4.15C1696.84,543.47,1700.85,542.13,1704.94,539.52Zm1.17-7.47c1.79-.79,3.44-.95,3.7-.37s-1,1.68-2.78,2.46-3.44,1-3.69.37S1704.33,532.83,1706.11,532.05Z"/><path class="cls-23" d="M1694,542.38a1.53,1.53,0,0,0,.93.6c.09-1.39.16-2.77.22-4.15C1694,540.32,1693.53,541.61,1694,542.38Z"/><path class="cls-23" d="M1707,534.14c1.79-.78,3-1.89,2.78-2.46s-1.91-.42-3.7.37-3,1.88-2.77,2.46S1705.25,534.92,1707,534.14Z"/><path class="cls-28" d="M1707,534.14c1.79-.78,3-1.89,2.78-2.46s-1.91-.42-3.7.37-3,1.88-2.77,2.46S1705.25,534.92,1707,534.14Z"/><path class="cls-23" d="M1702.9,563.56c5.91-.46,10.58-2.38,10.43-4.3s-5.06-3.1-11-2.64c-4.54.36-8.33,1.57-9.79,3-.14.62-.29,1.25-.44,1.88C1693.1,563.06,1697.59,564,1702.9,563.56Zm4.56-6c2,.16,3.48.79,3.43,1.42s-1.66,1-3.61.86-3.48-.78-3.43-1.41S1705.52,557.38,1707.46,557.53Z"/><path class="cls-23" d="M1692.13,561.49c.15-.63.3-1.26.44-1.88a1.7,1.7,0,0,0-.65,1.32A1.37,1.37,0,0,0,1692.13,561.49Z"/><path class="cls-23" d="M1707.28,559.81c2,.16,3.56-.23,3.61-.86s-1.48-1.26-3.43-1.42-3.56.24-3.61.87S1705.34,559.66,1707.28,559.81Z"/><path class="cls-29" d="M1707.28,559.81c2,.16,3.56-.23,3.61-.86s-1.48-1.26-3.43-1.42-3.56.24-3.61.87S1705.34,559.66,1707.28,559.81Z"/><path class="cls-30" d="M1911.34,430.24a181.29,181.29,0,0,1,8.66,16.38V419.39C1917.23,425.13,1913.86,429.31,1911.34,430.24Z"/><path class="cls-23" d="M1911.34,430.24a2.31,2.31,0,0,1-1.73.05c-1.33-.55-1.87-2.64-1.69-5.6l-.42-.68c-9.39-14.63-20.28-28.05-31.57-41.05l-1.14-.3c.66,1,1.24,2.06,1.77,3.09,9.9,13,19.33,26.33,27.25,40.48a188.78,188.78,0,0,1,9.84,20.24l.06.15q1.1,2.65,2.09,5.35a139.46,139.46,0,0,1,4.2,13.45v-18.8A181.29,181.29,0,0,0,1911.34,430.24Z"/><path class="cls-23" d="M1895.2,435.29c-11.44-3.56-21.65-3.44-22.81.27s7.19,9.6,18.63,13.16,21.65,3.44,22.8-.27a2.78,2.78,0,0,0-.11-1.83l-.06-.15C1912.15,442.87,1904.76,438.27,1895.2,435.29Zm-5.66,9c-.57,1.15-3.89.66-7.42-1.08s-5.94-4.08-5.38-5.23,3.89-.66,7.42,1.08S1890.1,443.13,1889.54,444.27Z"/><path class="cls-23" d="M1913.65,446.47l.06.15Z"/><path class="cls-23" d="M1884.16,439c-3.53-1.74-6.85-2.22-7.42-1.08s1.85,3.49,5.38,5.23,6.85,2.23,7.42,1.08S1887.7,440.79,1884.16,439Z"/><path class="cls-31" d="M1884.16,439c-3.53-1.74-6.85-2.22-7.42-1.08s1.85,3.49,5.38,5.23,6.85,2.23,7.42,1.08S1887.7,440.79,1884.16,439Z"/><path class="cls-23" d="M1911.06,412.63a39.29,39.29,0,0,0-3.14,12.06c1.16,1.83,2.31,3.68,3.42,5.55,2.52-.93,5.89-5.11,8.66-10.85V406.26a16.26,16.26,0,0,1-1,1.77c-1.6,2.61-3.59,4.3-4.44,3.78s-.22-3.06,1.38-5.67c1.38-2.23,3-3.79,4-3.86v-2.61C1917.22,401.35,1913.72,406.29,1911.06,412.63Z"/><path class="cls-23" d="M1909.61,430.29a2.31,2.31,0,0,0,1.73-.05c-1.11-1.87-2.26-3.72-3.42-5.55C1907.74,427.65,1908.28,429.74,1909.61,430.29Z"/><path class="cls-23" d="M1916,406.14c-1.6,2.61-2.22,5.15-1.38,5.67s2.84-1.17,4.44-3.78a16.26,16.26,0,0,0,1-1.77v-4C1919,402.35,1917.37,403.91,1916,406.14Z"/><path class="cls-32" d="M1916,406.14c-1.6,2.61-2.22,5.15-1.38,5.67s2.84-1.17,4.44-3.78a16.26,16.26,0,0,0,1-1.77v-4C1919,402.35,1917.37,403.91,1916,406.14Z"/><path class="cls-33" d="M1862.39,362.4a12.15,12.15,0,0,0-2.81-7.08,11.8,11.8,0,0,0-3.42-2.8,12.09,12.09,0,0,0-11.37-.18,12.22,12.22,0,0,0-2.27,1.5c-.12.1-.23.22-.35.33a12,12,0,0,0-3.28,4.94,12.15,12.15,0,0,0-.68,4.26,12,12,0,0,0,1,4.65,12.31,12.31,0,0,0,1.79,2.88c.19.22.38.42.58.62a12.1,12.1,0,0,0,5.24,3.19,12.3,12.3,0,0,0,4,.48,12,12,0,0,0,6.46-2.22c.27-.19.53-.38.78-.59a11.9,11.9,0,0,0,2.67-3.2A12.18,12.18,0,0,0,1862.39,362.4Z"/><path class="cls-34" d="M1908.34,377.2S1900,358.35,1879.07,356c8.23-5.33,15.62-14.53,18.37-30.28,0,0-20.49-5.68-35.65,9.92,1.17-10-1.3-21.86-12.36-34.17,0,0-19.06,14-13.55,37.8-7.62-7.81-19.55-13.91-38-11.25,0,0,.9,19.88,18.65,29.83-9.34,2-19.26,7.69-27.54,20.68,0,0,16.15,12.68,35.68,5-4.75,8.56-7,20.11-2,35.27,0,0,21.29-4.67,27.09-26.22,3.67,9.57,11.57,19.14,27.63,24.72,0,0,7.24-15.68-.8-31.56-.53-1-1.11-2.06-1.77-3.09l1.14.3C1884.83,385.1,1895.71,384.34,1908.34,377.2Zm-47.57-8a11.9,11.9,0,0,1-2.67,3.2c-.25.21-.51.4-.78.59a12,12,0,0,1-6.46,2.22,12.3,12.3,0,0,1-4-.48,12.1,12.1,0,0,1-5.24-3.19c-.2-.2-.39-.4-.58-.62a12.31,12.31,0,0,1-1.79-2.88,12,12,0,0,1-1-4.65,12.15,12.15,0,0,1,.68-4.26,12,12,0,0,1,3.28-4.94c.12-.11.23-.23.35-.33a12.22,12.22,0,0,1,2.27-1.5,12.09,12.09,0,0,1,11.37.18,11.8,11.8,0,0,1,3.42,2.8,12.1,12.1,0,0,1,1.19,13.86Z"/><path class="cls-35" d="M1744.48,450a13.12,13.12,0,1,0,1.19,18.52A13.12,13.12,0,0,0,1744.48,450Z"/><path class="cls-36" d="M1786.22,474s-6.73-17.53-25.83-19.68c7.67-4.36,14.8-12.33,17.48-26.73,0,0-16.2-4.69-29.18,6.68,1-8.07-.94-17.61-9-27.87,0,0-15,9.54-14.24,27.67-5.61-6.32-14.39-11.42-28.16-11.73,0,0-2.19,18.19,13.06,29.07-8.66.3-18.45,3.94-27.5,15,0,0,14.42,14.41,33.94,6.64-5.66,7.5-9.31,18.45-4.66,33.81,0,0,16.74-3.32,22.94-19.63a.93.93,0,0,1,.05-.1,32.58,32.58,0,0,0,2.18,4.66c3.45,6.06,9.31,11.83,19,16.11,0,0,8.71-15.39-.37-31C1763.83,479.73,1774,480.11,1786.22,474Zm-40.55-5.43a13.12,13.12,0,1,1-1.19-18.52A13.11,13.11,0,0,1,1745.67,468.53Z"/><circle class="cls-33" cx="1695.61" cy="494.7" r="6.98" transform="translate(884.96 2063.99) rotate(-78.95)"/><path class="cls-37" d="M1728,506.33s-3.63-11.31-15.48-13.92c5-2.55,9.84-7.37,12.38-16.23,0,0-11.39-4.51-21,3.5,1.28-5.64.59-12.6-5-20.33,0,0-11.78,6.87-10.07,20.83-3.89-4.94-10.35-9.17-21.08-8.77,0,0-.7,11.44,8.85,18.23-5.47.56-11.5,3.23-17,10.16,0,0,8.48,8.26,20.14,5-3.25,4.61-5.21,11.1-3.33,20.09,0,0,11.79-1.3,16.72-12.38.14-.32.28-.65.41-1a24,24,0,0,0,1,2.78c2,4.81,5.94,9.57,13.37,13.08,0,0,5.79-9.69.65-20C1713.5,509.39,1720,509.79,1728,506.33Zm-28.49-5.84a7,7,0,1,1,1.89-9.68A7,7,0,0,1,1699.51,500.49Z"/><path class="cls-38" d="M149.16,421.29c-6.73,21-12.94,42.24-16.48,64.22a213.27,213.27,0,0,0-2.84,33.37,157.05,157.05,0,0,0,3.45,33.67h0a4.45,4.45,0,1,0,8.7-1.89l-.06-.26a149.31,149.31,0,0,1-5.18-31.73,208.38,208.38,0,0,1,.82-32.54c2.17-21.74,7.05-43.26,12.52-64.59a.48.48,0,0,0-.93-.26Z"/><path class="cls-23" d="M90.88,390.84c.34,20.16,1.21,40.42,4.61,60.51a195.94,195.94,0,0,0,7.35,29.76,144.21,144.21,0,0,0,12.89,28.16h0a4.07,4.07,0,1,0,7-4.2,2.26,2.26,0,0,0-.13-.2,136.86,136.86,0,0,1-13.81-26,189.47,189.47,0,0,1-8.86-28.44C95.4,431,93.3,410.89,91.76,390.8a.43.43,0,0,0-.47-.4A.44.44,0,0,0,90.88,390.84Z"/><path class="cls-39" d="M68.07,556.71c.31-.74,1.68-.75,1.56.21-.35,2.65-.71,5.28-1,7.92H87.08l1.67-1.8c-2.11-2.07-1.63-5.21-1.43-7.95A42.2,42.2,0,0,1,89.76,543c.28-.74,1.58-.71,1.49.2-.58,5.92-2.72,12.9-1.59,18.86l2.22-2.36c4.36-4.62,8.81-9.15,13.3-13.63a.58.58,0,0,1-.48-.15c-3-2.58-2.09-7.11-1.84-10.71.39-5.63.47-11.68,2.1-17.1a.91.91,0,0,1,1.77.24c.48,4.87-.32,9.87-.69,14.75-.3,4.1.19,8.4-.31,12.4,0,0,0,0,0,0q8.32-8.32,16.92-16.38a1.06,1.06,0,0,1-1.24-.94c-.51-8,1.55-17.72,4.57-25.09a.94.94,0,0,1,1.82.5c-1.33,8.18-2.58,16.8-4.47,24.85l0,.07q6.93-6.49,14-12.86,6.52-5.87,13.12-11.63a1.2,1.2,0,0,1-.21-1c.89-3.91,2.53-7.69,3.85-11.48,1.2-3.4,2.18-6.95,4-10.09.49-.87,2.09-.55,2,.54-.37,3.87-1.79,7.54-3.1,11.18-.93,2.59-1.85,5.26-3,7.79q13.09-11.37,26.41-22.48a.87.87,0,0,1-.07-.4c.25-3.5,2-6.87,3.25-10.1a64.43,64.43,0,0,1,4.71-10.6,1.06,1.06,0,0,1,1.92.81c-1.22,5.95-4,11.88-6.51,17.53l2.63-2.2c5.37-4.47,10.78-8.9,16.18-13.34.12-6.15,3.26-13.65,6.6-18.55a.82.82,0,0,1,1.49.62c-1.44,5.39-3.69,10.61-5.6,15.88,1.62-1.33,3.24-2.68,4.87-4,7.35-6,14.93-12.45,23.91-15.81.88-.33,1.22.92.59,1.39-5,3.63-9.95,7.35-14.87,11.11A42.07,42.07,0,0,1,232,452.32a.87.87,0,0,1-.23,1.7c-4.56.36-10.31.23-14.67-1.35q-9.1,7-18.07,14.25c2.48-.15,5.07.49,7.5.69,4.42.37,8.86.29,13.29.54,1.3.07,1.75,2.18.32,2.4-7.9,1.18-15.49-.21-23.15-2q-11,8.93-21.71,18.15c2.54,0,5.1.26,7.64.26,4.49,0,9-.46,13.48-.31a1.14,1.14,0,0,1,.3,2.22c-6.9,1.79-17.13,2.51-24.26.25-11.66,10-23.15,20.27-34.49,30.57-1.45,1.31-2.87,2.66-4.32,4,3.58-.7,7.3-.92,10.9-1.38,5.3-.69,10.67-1.8,16-1.86a1,1,0,0,1,.26,1.94c-8.42,3-20.64,4.72-29.64,3.57q-5.85,5.43-11.61,10.95c3.09.57,6,2.4,9,3.22a97.45,97.45,0,0,0,12.26,2c1,.14,1,1.83,0,2a29.65,29.65,0,0,1-13.1-.9c-3.31-.91-7.48-2-9.77-4.77-4.64,4.48-9.24,9-13.76,13.59,2.86-.36,5.8.43,8.68.83,5,.69,10,1.11,15.05,1.52a1.35,1.35,0,0,1,0,2.69,127.64,127.64,0,0,1-25.68-3c-2.92,3-5.82,6-8.68,9-.55.59-1.09,1.2-1.64,1.79h30.4l1.4-.25a1.1,1.1,0,0,1,.94.25h43.79c22.88-10.39,49.35-24.93,46.52-35.53-4.8-17.95-39.22-3.17-40.82-2.49,3-1.87,114.39-72.55,74.35-96.43-40.3-24-110.65,67.62-111.61,68.9.46-.81,22.68-39.22-4.15-41.34C105.65,455.81,57,548.9,57,548.9s3.68-19-11-16.54c-5.73,1-14.88,15.33-23.9,32.48h44A30.86,30.86,0,0,1,68.07,556.71Z"/><path class="cls-40" d="M69.63,556.92c.12-1-1.25-.95-1.56-.21a30.86,30.86,0,0,0-2,8.13h2.58C68.92,562.2,69.28,559.57,69.63,556.92Z"/><path class="cls-40" d="M93.57,563.05c2.86-3,5.76-6,8.68-9a127.64,127.64,0,0,0,25.68,3,1.35,1.35,0,0,0,0-2.69c-5-.41-10.06-.83-15.05-1.52-2.88-.4-5.82-1.19-8.68-.83,4.52-4.6,9.12-9.11,13.76-13.59,2.29,2.72,6.46,3.86,9.77,4.77a29.65,29.65,0,0,0,13.1.9c1-.17,1-1.86,0-2a97.45,97.45,0,0,1-12.26-2c-3.07-.82-5.95-2.65-9-3.22q5.76-5.53,11.61-10.95c9,1.15,21.22-.62,29.64-3.57a1,1,0,0,0-.26-1.94c-5.35.06-10.72,1.17-16,1.86-3.6.46-7.32.68-10.9,1.38,1.45-1.32,2.87-2.67,4.32-4,11.34-10.3,22.83-20.53,34.49-30.57,7.13,2.26,17.36,1.54,24.26-.25a1.14,1.14,0,0,0-.3-2.22c-4.49-.15-9,.31-13.48.31-2.54,0-5.1-.25-7.64-.26Q186,477.52,197,468.56c7.66,1.78,15.25,3.17,23.15,2,1.43-.22,1-2.33-.32-2.4-4.43-.25-8.87-.17-13.29-.54-2.43-.2-5-.84-7.5-.69q9-7.25,18.07-14.25c4.36,1.58,10.11,1.71,14.67,1.35a.87.87,0,0,0,.23-1.7,42.07,42.07,0,0,0-12.59-1.44c4.92-3.76,9.87-7.48,14.87-11.11.63-.47.29-1.72-.59-1.39-9,3.36-16.56,9.8-23.91,15.81-1.63,1.33-3.25,2.68-4.87,4,1.91-5.27,4.16-10.49,5.6-15.88a.82.82,0,0,0-1.49-.62c-3.34,4.9-6.48,12.4-6.6,18.55-5.4,4.44-10.81,8.87-16.18,13.34l-2.63,2.2c2.55-5.65,5.29-11.58,6.51-17.53a1.06,1.06,0,0,0-1.92-.81,64.43,64.43,0,0,0-4.71,10.6c-1.26,3.23-3,6.6-3.25,10.1a.87.87,0,0,0,.07.4Q167,489.68,153.87,501c1.15-2.53,2.07-5.2,3-7.79,1.31-3.64,2.73-7.31,3.1-11.18.1-1.09-1.5-1.41-2-.54-1.8,3.14-2.78,6.69-4,10.09-1.32,3.79-3,7.57-3.85,11.48a1.2,1.2,0,0,0,.21,1q-6.6,5.78-13.12,11.63-7,6.36-14,12.86l0-.07c1.89-8,3.14-16.67,4.47-24.85a.94.94,0,0,0-1.82-.5c-3,7.37-5.08,17.08-4.57,25.09a1.06,1.06,0,0,0,1.24.94q-8.58,8.07-16.92,16.38s0,0,0,0c.5-4,0-8.3.31-12.4.37-4.88,1.17-9.88.69-14.75a.91.91,0,0,0-1.77-.24c-1.63,5.42-1.71,11.47-2.1,17.1-.25,3.6-1.16,8.13,1.84,10.71a.58.58,0,0,0,.48.15c-4.49,4.48-8.94,9-13.3,13.63l-2.22,2.36c-1.13-6,1-12.94,1.59-18.86.09-.91-1.21-.94-1.49-.2a42.2,42.2,0,0,0-2.44,12.08c-.2,2.74-.68,5.88,1.43,7.95l-1.67,1.8h4.85C92.48,564.25,93,563.64,93.57,563.05Z"/><path class="cls-40" d="M123.73,564.59l-1.4.25h2.34A1.1,1.1,0,0,0,123.73,564.59Z"/><path class="cls-15" d="M124.47,514.88c-3-15.9-9.81-16.91-9.81-16.91s-1,7.09-2.36,13.53-6.78,11.15-6.78,11.15,4.74-30.1,1.36-50-17.6-35.18-17.6-35.18,1.37,10.94-1.36,20.65-10.35,11.36-10.35,11.36,1.56-13.74-1.46-26.24-13.89-21.55-13.89-21.55,2.4,11.5,1.37,19.51A70.58,70.58,0,0,1,60.44,455s-7-14.53-17.82-39.55C35.41,398.77,13.71,379,0,367.73v85.89c3.1,4.48,6.07,9.06,9,13.69,4.85-19.62,8-38.16,7.23-58.76a.62.62,0,0,1,1.22-.16c4,20.24,2.56,43.68-6.07,62.77,4.25,7,8.36,14.09,12.36,21.24,2.81-7.35,5.56-14.61,7.24-22.41,2.32-10.73,1.93-21.27,2.88-32.1.09-.86,1.35-1.13,1.59-.21,4.61,18.14-.18,42.09-9.51,58.65C30,503.64,34,511,38,518.16c1.26,2.25,2.47,4.5,3.71,6.76a169.16,169.16,0,0,0,11.67-60,.7.7,0,0,1,1.39,0c2.06,22-1.71,43-10.37,63.34a1.63,1.63,0,0,1-.51.61q5.9,10.75,11.66,21.58C69.48,532.37,74.38,511,75.48,488.4a.4.4,0,0,1,.79,0c3.08,23.78-4,46.91-18.9,65.55,1.07,2,2.15,4,3.19,6,.85,1.62,1.74,3.25,2.65,4.89H73.59a177,177,0,0,0,18.57-46.45c.21-.95,1.62-.54,1.46.4-3.07,16.67-7.8,31.66-15.32,46.05h41.88C123.07,547.51,126.27,524.3,124.47,514.88Z"/><path class="cls-15" d="M56,562.65c-2.05-3.92-4.14-7.81-6.23-11.72C38.91,558,20.52,560.82,9,555.43c-.92-.41-.43-1.87.5-1.85,7.41.12,14.45.68,21.82-.6,5.87-1,11.29-3.08,16.86-5-2.38-4.45-4.77-8.86-7.19-13.29-11.4,3.27-24,.09-34.1-5.34a.66.66,0,0,1,.51-1.19c10.68,3.14,20.93,3.07,31.7,3.07-1.62-2.94-3.21-5.88-4.83-8.79-2.07-3.75-4.21-7.46-6.39-11.15-7.15,2.55-17.13.63-23.35-2.87a1.56,1.56,0,0,1,1.21-2.84c4.09,1,8,2.19,12.21,2.59,2.7.25,5.42,0,8.11,0-8.61-14.58-17.67-29-26-43.67V564.84H57.05C56.69,564.11,56.32,563.37,56,562.65Z"/><path class="cls-10" d="M93.62,518.79c.16-.94-1.25-1.35-1.46-.4a177,177,0,0,1-18.57,46.45H78.3C85.82,550.45,90.55,535.46,93.62,518.79Z"/><path class="cls-10" d="M17.94,508.2c-4.2-.4-8.12-1.6-12.21-2.59a1.56,1.56,0,0,0-1.21,2.84c6.22,3.5,16.2,5.42,23.35,2.87,2.18,3.69,4.32,7.4,6.39,11.15,1.62,2.91,3.21,5.85,4.83,8.79-10.77,0-21,.07-31.7-3.07a.66.66,0,0,0-.51,1.19C17,534.81,29.58,538,41,534.72c2.42,4.43,4.81,8.84,7.19,13.29-5.57,1.89-11,3.93-16.86,5-7.37,1.28-14.41.72-21.82.6-.93,0-1.42,1.44-.5,1.85,11.53,5.39,29.92,2.58,40.73-4.5,2.09,3.91,4.18,7.8,6.23,11.72.37.72.74,1.46,1.1,2.19h6.16c-.91-1.64-1.8-3.27-2.65-4.89-1-2-2.12-4-3.19-6,14.87-18.64,22-41.77,18.9-65.55a.4.4,0,0,0-.79,0c-1.1,22.63-6,44-19.94,62.06q-5.76-10.83-11.66-21.58a1.63,1.63,0,0,0,.51-.61c8.66-20.31,12.43-41.36,10.37-63.34a.7.7,0,0,0-1.39,0,169.16,169.16,0,0,1-11.67,60c-1.24-2.26-2.45-4.51-3.71-6.76-4-7.19-8-14.52-12.1-21.83,9.33-16.56,14.12-40.51,9.51-58.65-.24-.92-1.5-.65-1.59.21-1,10.83-.56,21.37-2.88,32.1-1.68,7.8-4.43,15.06-7.24,22.41-4-7.15-8.11-14.25-12.36-21.24,8.63-19.09,10-42.53,6.07-62.77a.62.62,0,0,0-1.22.16c.73,20.6-2.38,39.14-7.23,58.76C6.07,462.68,3.1,458.1,0,453.62v10.95c8.38,14.7,17.44,29.09,26.05,43.67C23.36,508.22,20.64,508.45,17.94,508.2Z"/><path class="cls-34" d="M229.26,370.15c-16.43-8-29.9-7.32-40.36-3.29,11.83-20.95,0-41.3,0-41.3-16.06,7.35-24.12,17.7-27.84,28-8.48-21.72-30.91-25.89-30.91-25.89-5.94,20.51-.91,35,6.75,44.92-26.11-10-45.06,9.38-45.06,9.38,12.22,14.52,25.31,19.21,36.83,19.46-20.11,14.73-16.91,38.9-16.91,38.9,18.32-.63,29.93-7.56,37.29-16.05-.68,24.13,19.39,36.58,19.39,36.58,10.55-13.78,12.91-26.5,11.52-37.22,17.45,14.91,38.93,8.41,38.93,8.41-3.79-19.12-13.41-29.6-23.68-35.29C220.58,393.58,229.26,370.15,229.26,370.15Z"/><circle class="cls-33" cx="161.63" cy="392.73" r="13.88" transform="translate(-235.27 241.63) rotate(-46.79)"/><path class="cls-21" d="M125.77,336.07c-17.61,1.69-27.25,10-32.52,18.92-.26-23.16-21-31.82-21-31.82-7.44,13.84-7.05,25.35-3.73,34.3-17.48-11-35.11-1.13-35.11-1.13,6.08,13.91,15,20.73,23.75,23.8-18.78,6.85-22.23,26.1-22.23,26.1,13.83,3.91,24.34,1.84,32.17-2.5-6.15,18,5.42,32.54,5.42,32.54,13.56-8.76,18.69-19.37,19.93-29,10.2,18.57,30.89,18.09,30.89,18.09,1.13-15.08-3.51-25.25-9.81-32.07,19.75,2.71,31.8-12.62,31.8-12.62-10.57-10.12-21-13.16-30.06-12.88C129.41,354.61,125.77,336.07,125.77,336.07Z"/><path class="cls-34" d="M90.4,369.89a11.5,11.5,0,1,0,5.2,15.41A11.51,11.51,0,0,0,90.4,369.89Z"/></g></g></svg>