<svg xmlns="http://www.w3.org/2000/svg" xmlns:xlink="http://www.w3.org/1999/xlink" viewBox="0 0 1920 565"><defs><style>.cls-1{fill:none;}.cls-2{fill:#27a2d8;}.cls-3{fill:#dadada;}.cls-4{fill:#efeded;}.cls-5{clip-path:url(#clip-path);}.cls-6{fill:#223e4c;opacity:0.53;}.cls-7{fill:#161515;}.cls-8{fill:#e9c861;}.cls-9{fill:#b7973d;opacity:0.25;}.cls-10{fill:#59534d;}.cls-11{fill:#b73535;}.cls-12{fill:#96292d;}.cls-13{fill:#363231;}.cls-14{fill:#b63633;}.cls-15{fill:#f2eae9;}</style><clipPath id="clip-path"><rect class="cls-1" width="1920" height="564.5"/></clipPath></defs><g id="Background"><rect class="cls-2" width="1920" height="564.5"/></g><g id="Layer_1" data-name="Layer 1"><path class="cls-3" d="M492.63,276.42h-7.69a27.68,27.68,0,0,0-32.27-40,51,51,0,0,0-89.53-5.76,34.64,34.64,0,0,0-40.95,45.8h-6.34a5.53,5.53,0,1,0,0,11.05H492.63a5.53,5.53,0,0,0,0-11.05Z"/><path class="cls-4" d="M488.63,276.42h-7.69a27.68,27.68,0,0,0-32.27-40,51,51,0,0,0-89.53-5.76,34.64,34.64,0,0,0-40.95,45.8h-6.34a5.53,5.53,0,1,0,0,11.05H488.63a5.53,5.53,0,0,0,0-11.05Z"/><path class="cls-3" d="M1544.63,263.42h-7.69a27.68,27.68,0,0,0-32.27-40,51,51,0,0,0-89.53-5.76,34.64,34.64,0,0,0-41,45.8h-6.34a5.53,5.53,0,1,0,0,11.05h176.78a5.53,5.53,0,0,0,0-11.05Z"/><path class="cls-4" d="M1540.63,263.42h-7.69a27.68,27.68,0,0,0-32.27-40,51,51,0,0,0-89.53-5.76,34.64,34.64,0,0,0-41,45.8h-6.34a5.53,5.53,0,1,0,0,11.05h176.78a5.53,5.53,0,0,0,0-11.05Z"/><path class="cls-3" d="M523,138.54h-4.9a36.2,36.2,0,0,0-29.22-55.72,28.1,28.1,0,0,0-34.31-24c-5.56-14.41-20.11-24.69-37.19-24.69-20.23,0-36.9,14.42-39.31,33a31.66,31.66,0,0,0-42.75,21.8,35.06,35.06,0,0,0-28.47,49.6H302.2a4.59,4.59,0,0,0,0,9.17H523a4.59,4.59,0,0,0,0-9.17Z"/><path class="cls-4" d="M529,138.54h-4.9a36.2,36.2,0,0,0-29.22-55.72,28.1,28.1,0,0,0-34.31-24c-5.56-14.41-20.11-24.69-37.19-24.69-20.23,0-36.9,14.42-39.3,33a31.67,31.67,0,0,0-42.76,21.8,35.06,35.06,0,0,0-28.47,49.6H308.2a4.59,4.59,0,0,0,0,9.17H529a4.59,4.59,0,0,0,0-9.17Z"/><g class="cls-5"><polygon class="cls-6" points="1907.22 366.88 1893.84 381.58 1893.84 426.66 1879.58 426.66 1879.58 303.19 1815.84 303.19 1815.84 590.8 1796.67 569.73 1796.67 404.12 1654.92 404.12 1654.92 446.26 1580.03 446.26 1580.03 578.55 1580.03 636.8 1514.25 636.8 1514.25 464.77 1495.22 464.77 1495.22 397.83 1456.21 397.83 1456.21 508.69 1438.13 508.69 1438.13 529.61 1415.3 489.87 1375.34 489.87 1375.34 346.59 1298.27 346.59 1291.61 353.91 1291.61 397.83 1291.61 446.99 1269.73 446.99 1269.73 316.26 1204.08 316.26 1204.08 338.22 1191.23 352.34 1191.23 575.1 1176.49 575.1 1176.49 396.27 1167.92 396.27 1167.92 379.01 1092.29 379.01 1079.44 393.13 1079.44 413 1022.29 413 1022.29 357.75 958.89 357.75 958.89 538.86 935.51 538.86 935.51 466.78 902.4 438.7 902.4 329.66 860.52 329.66 836.17 309.01 805.01 309.01 805.01 418.87 730.01 418.87 730.01 543.6 710.53 543.6 710.53 369.31 655.99 393.27 655.99 497.35 641.38 497.35 641.38 337.1 622.88 337.1 622.88 290.01 604.37 290.01 604.37 279.27 596.58 279.27 596.58 288.36 550.81 288.36 550.81 324.71 507.95 324.71 497.24 337.1 497.24 485.78 460.72 485.78 460.72 455.63 437.83 436.22 437.83 365.18 357.97 365.18 357.97 423.83 328.75 423.83 328.75 473.39 293.69 506.43 271.29 506.43 271.29 349.49 208.95 313.14 208.95 458.52 194.34 458.52 194.34 358.57 120.32 358.57 120.32 393.27 86.23 393.27 86.23 559.3 71.63 559.3 71.63 487.43 21.95 487.43 21.95 465.13 13.19 454.39 -40.38 454.39 -44.27 744.33 880.15 744.33 935.51 744.33 958.89 744.33 1022.29 744.33 1022.29 666.6 1242.14 666.6 1242.14 666.08 1483.8 666.08 1483.8 666.6 1580.03 666.6 1718.8 666.6 1964.27 666.6 1964.27 366.88 1907.22 366.88"/><path class="cls-3" d="M1909,165.42H1893.7a55.06,55.06,0,0,0-64.2-79.66,101.57,101.57,0,0,0-178.14-11.47,68.92,68.92,0,0,0-81.47,91.13h-12.62a11,11,0,0,0,0,22H1909a11,11,0,1,0,0-22Z"/><path class="cls-4" d="M1901.05,165.42h-15.31a55.06,55.06,0,0,0-64.2-79.66A101.57,101.57,0,0,0,1643.4,74.29a68.92,68.92,0,0,0-81.47,91.13h-12.62a11,11,0,0,0,0,22h351.74a11,11,0,1,0,0-22Z"/><path class="cls-3" d="M255.07,200H237.44a64.38,64.38,0,0,0-77.85-73.4,76.89,76.89,0,0,0-152.14-.14A70.09,70.09,0,0,0-6.91,125a69.91,69.91,0,0,0-69.91,69.91c0,1.72.08,3.42.2,5.11H-93.56a9.87,9.87,0,0,0-9.83,9.83h0a9.86,9.86,0,0,0,9.83,9.83H255.07a9.86,9.86,0,0,0,9.83-9.83h0A9.87,9.87,0,0,0,255.07,200Z"/><path class="cls-4" d="M241.45,200H223.83A64.38,64.38,0,0,0,146,126.63a76.89,76.89,0,0,0-152.14-.14A70.09,70.09,0,0,0-20.52,125a69.91,69.91,0,0,0-69.92,69.91c0,1.72.09,3.42.21,5.11h-16.94a9.86,9.86,0,0,0-9.83,9.83h0a9.85,9.85,0,0,0,9.83,9.83H241.45a9.86,9.86,0,0,0,9.84-9.83h0A9.87,9.87,0,0,0,241.45,200Z"/><path class="cls-3" d="M1957.13,323.22h-10.64a38.26,38.26,0,0,0-44.61-55.35,70.58,70.58,0,0,0-123.78-8,47.9,47.9,0,0,0-56.61,63.32h-8.77a7.64,7.64,0,0,0,0,15.28h244.41a7.64,7.64,0,0,0,0-15.28Z"/><path class="cls-4" d="M1951.6,323.22H1941a38.26,38.26,0,0,0-44.61-55.35,70.58,70.58,0,0,0-123.78-8A47.9,47.9,0,0,0,1716,323.22h-8.77a7.64,7.64,0,0,0,0,15.28H1951.6a7.64,7.64,0,0,0,0-15.28Z"/></g><polygon class="cls-7" points="291.26 162.4 205.35 162.4 205.35 159.93 291.3 159.93 291.26 162.4"/><polygon class="cls-7" points="205.35 159.93 205.35 305.2 195.62 309.83 170.22 292.42 170.22 166.15 205.35 159.93"/><polygon class="cls-7" points="291.26 164.81 291.26 301.68 306.98 309.09 328.08 294.25 328.08 166.56 291.3 159.93 291.26 164.81"/><polygon class="cls-8" points="170.22 307.14 170.22 167.88 205.35 161.66 291.3 161.66 328.08 168.29 328.08 303.01 305.35 320.36 248.53 291.44 191.71 320.36 170.22 307.14"/><polygon class="cls-9" points="205.35 161.66 205.35 306.93 195.62 311.56 170.22 294.15 170.22 167.88 205.35 161.66"/><path class="cls-7" d="M177.76,246.8l.2-57.19s-.72-13.4,11.56-13.4c9.17,0,8.08,8.56,8.08,13.74s-.21,55.45-.21,55.45Z"/><path class="cls-10" d="M179.31,246.71V187.56s1.05-11.35,10.21-11.35S199,184.77,199,190v55.37Z"/><polygon class="cls-9" points="291.26 166.54 291.26 303.41 306.98 310.82 328.08 295.99 328.08 168.29 291.3 161.66 291.26 166.54"/><path class="cls-7" d="M320.27,246.8l-.21-57.19s.72-13.4-11.56-13.4c-9.17,0-8.08,8.56-8.08,13.74s.21,55.45.21,55.45Z"/><path class="cls-10" d="M318.71,246.71V187.56s-1-11.35-10.21-11.35-9.43,8.56-9.43,13.74v55.37Z"/><polygon class="cls-7" points="171.33 257.3 203.81 254.4 203.81 257.3 171.33 260.2 171.33 257.3"/><polygon class="cls-7" points="326.29 257.3 293.06 254.4 293.06 257.3 326.29 260.2 326.29 257.3"/><rect class="cls-7" x="204.43" y="254.4" width="87.77" height="2.9"/><path class="cls-10" d="M249.24,173.62h-.18c-16.31,0-18.47,14.85-18.47,14.85v55.65h37.12V188.47S265.55,173.62,249.24,173.62Z"/><polygon class="cls-10" points="291.26 164.13 205.35 164.13 205.35 161.66 291.3 161.66 291.26 164.13"/><polygon class="cls-10" points="171.33 256.1 203.81 253.19 203.81 256.1 171.33 259 171.33 256.1"/><polygon class="cls-10" points="326.29 256.1 293.06 253.19 293.06 256.1 326.29 259 326.29 256.1"/><rect class="cls-10" x="204.43" y="253.19" width="87.77" height="2.9"/><path class="cls-10" d="M203.1,164.35V305.51L195.82,309l-23.35-16V169.77l30.63-5.42m2.25-2.69-35.13,6.22V294.15l25.4,17.41,9.73-4.63V161.66Z"/><path class="cls-10" d="M293.53,164.35l32.3,5.82V294.82l-19.08,13.41L293.51,302V166.56l0-2.21m-2.23-2.69,0,4.88V303.41L307,310.82,328.08,296V168.29l-36.78-6.63Z"/><path class="cls-7" d="M250,73.11h0V38.39c0-.49-.19-.89-.43-.89h-.8c-.24,0-.43.4-.43.89V73.11H250Z"/><path class="cls-11" d="M250,73.11h-1.66a6.14,6.14,0,0,0-6.09,6.12V89.87c2.77-.27,5.62-.46,8.63-.46,1.79,0,3.51.08,5.21.18V79.23A6.14,6.14,0,0,0,250,73.11Z"/><polygon class="cls-12" points="256.07 85.5 249.15 87.6 242.23 85.5 242.23 80.34 249.15 82.43 256.07 80.34 256.07 85.5"/><path class="cls-11" d="M256.07,89.59c-1.7-.1-3.42-.18-5.21-.18-3,0-5.86.19-8.63.46C183.82,95.61,178.68,159,178.68,159h141S317.53,93.13,256.07,89.59Z"/><path class="cls-12" d="M290.28,139.81a57.39,57.39,0,0,1-3.35,19.2h32.7s-2-61.49-57.58-68.82A58.05,58.05,0,0,1,290.28,139.81Z"/><path class="cls-8" d="M170.22,166.15a1.18,1.18,0,0,1-1.1-1.08c-.23-1.21,1.1-1.48,1.1-1.48L205.59,157H291.3l36.64,7.09s1.15.13,1.15,1.14a1.4,1.4,0,0,1-1,1.29l-36.78-6.63h-86Z"/><polygon class="cls-7" points="169.09 162.21 167.29 159.93 205.35 152.09 291.3 152.09 332.88 161.34 329.74 163.11 291.3 155.31 205.59 155.31 169.09 162.21"/><polygon class="cls-10" points="170.22 163.59 168.25 161.17 205.35 153.82 291.3 153.82 330.98 162.4 327.94 164.13 291.3 157.04 205.59 157.04 170.22 163.59"/><polygon class="cls-10" points="165.61 153.82 170.22 162.4 171.73 161.8 165.61 153.82"/><polygon class="cls-10" points="332.88 153.82 328.27 162.4 326.76 161.8 332.88 153.82"/><polygon class="cls-10" points="204.56 145.16 204.13 156.01 205.7 156.01 204.56 145.16"/><polygon class="cls-10" points="290.9 145.16 290.48 156.01 292.04 156.01 290.9 145.16"/><polygon class="cls-8" points="144.89 565 144.89 311.79 171.07 284.32 195.63 304.18 249.99 271.22 306.77 303.34 331.34 283.48 357.11 310.52 357.11 565 144.89 565"/><polygon class="cls-9" points="306.77 303.34 306.77 565 357.11 565 357.11 310.52 331.34 283.48 306.77 303.34"/><polygon class="cls-9" points="195.63 304.18 195.63 565 144.89 565 144.89 311.79 171.07 284.32 195.63 304.18"/><polygon class="cls-13" points="183.82 565 157.63 565 157.63 397.59 183.82 391.12 183.82 565"/><polygon class="cls-7" points="183.82 391.12 157.63 397.59 157.63 400.35 157.63 565 161.16 565 161.16 399.85 183.82 394.09 183.82 391.12"/><polygon class="cls-13" points="318.62 565 344.8 565 344.8 397.59 318.62 391.12 318.62 565"/><polygon class="cls-7" points="318.62 391.12 344.8 397.59 344.8 400.35 344.8 565 341.27 565 341.27 399.85 318.62 394.09 318.62 391.12"/><rect class="cls-13" x="235.2" y="391.12" width="31.61" height="173.88"/><rect class="cls-7" x="235.2" y="391.12" width="31.61" height="3.47"/><polygon class="cls-10" points="331.34 279.1 306.77 300.27 249.99 266.04 195.63 301.17 171.07 280 144.89 309.28 144.89 316.49 171.07 287.21 195.63 308.38 249.99 273.25 306.77 307.48 331.34 286.31 357.11 315.13 357.11 307.93 331.34 279.1"/><polygon class="cls-7" points="183.67 337.12 183.67 361.33 157.63 367.4 157.63 343.81 183.67 337.12"/><polygon class="cls-13" points="181.49 339.56 181.49 361.74 157.63 367.4 157.63 345.78 181.49 339.56"/><polygon class="cls-7" points="318.92 337.12 318.92 361.33 344.96 367.4 344.96 343.81 318.92 337.12"/><polygon class="cls-13" points="321.1 339.56 321.1 361.74 344.96 367.4 344.96 345.78 321.1 339.56"/><ellipse class="cls-14" cx="251" cy="337.83" rx="45.17" ry="41.76"/><rect class="cls-15" x="248.03" y="343.52" width="22.66" height="1.86" rx="0.31" transform="translate(262.89 775.61) rotate(-143.49)"/><rect class="cls-15" x="237.87" y="325.09" width="26.27" height="1.86" rx="0.31" transform="translate(-75.02 577.02) rotate(-90)"/><path class="cls-15" d="M252.23,306.13a.7.7,0,0,1-.12,1,.68.68,0,0,1-.43.15.74.74,0,0,1-.56-.26l-2.23-2.84L246.65,307a.74.74,0,0,1-.56.26.72.72,0,0,1-.43-.15.7.7,0,0,1-.11-1L248,303l-2.44-3.11a.71.71,0,0,1,.11-1,.7.7,0,0,1,1,.12l2.24,2.84,2.23-2.84a.7.7,0,0,1,1-.12.71.71,0,0,1,.12,1L249.78,303Z"/><path class="cls-15" d="M253.63,307.26a.7.7,0,0,1-.7-.7v-7.08a.7.7,0,0,1,.7-.7.71.71,0,0,1,.71.7v7.08A.71.71,0,0,1,253.63,307.26Z"/><path class="cls-15" d="M255.89,307.26a.7.7,0,0,1-.7-.7v-7.08a.7.7,0,0,1,.7-.7.7.7,0,0,1,.71.7v7.08A.7.7,0,0,1,255.89,307.26Z"/><path class="cls-15" d="M217.4,341.59a.7.7,0,0,1-.69.7h-7.07a.71.71,0,0,1,0-1.41h7.07A.7.7,0,0,1,217.4,341.59Z"/><path class="cls-15" d="M216.27,333.51a.71.71,0,0,1,1,.12.65.65,0,0,1,.15.44.72.72,0,0,1-.26.55l-2.83,2.23,2.83,2.23a.72.72,0,0,1,.26.55.67.67,0,0,1-.15.44.7.7,0,0,1-1,.11l-3.1-2.44-3.09,2.44a.71.71,0,0,1-1-.11.7.7,0,0,1,.12-1l2.83-2.23-2.83-2.23a.7.7,0,0,1-.12-1,.72.72,0,0,1,1-.12l3.09,2.45Z"/><path class="cls-15" d="M252,368.48a.69.69,0,0,1,.65.46l2.62,7.07a.7.7,0,0,1-.41.9.72.72,0,0,1-.91-.42l-2-5.28-2,5.28a.7.7,0,1,1-1.32-.48l2.62-7.07A.72.72,0,0,1,252,368.48Z"/><path class="cls-15" d="M247.42,368.48a.7.7,0,0,1,.7.7v7.07a.7.7,0,0,1-.7.7.72.72,0,0,1-.71-.7v-7.07A.72.72,0,0,1,247.42,368.48Z"/><path class="cls-15" d="M284.2,335.57a.7.7,0,0,1,.7-.7H292a.7.7,0,0,1,.7.7.72.72,0,0,1-.7.71H284.9A.72.72,0,0,1,284.2,335.57Z"/><path class="cls-15" d="M284.2,337.82a.71.71,0,0,1,.7-.7H292a.71.71,0,0,1,0,1.41H284.9A.71.71,0,0,1,284.2,337.82Z"/><path class="cls-15" d="M284.2,340.08a.7.7,0,0,1,.7-.7H292a.7.7,0,0,1,.7.7.72.72,0,0,1-.7.71H284.9A.72.72,0,0,1,284.2,340.08Z"/></g></svg>