<svg id="Layer_1" data-name="Layer 1" xmlns="http://www.w3.org/2000/svg" viewBox="0 0 497.7 325.2"><defs><style>.cls-1{fill:#fad0b9;}.cls-2{fill:#0e2549;}.cls-3{fill:#202233;}.cls-4{fill:#fff;}.cls-5{fill:#93b7ce;}.cls-6{fill:#d63c48;}.cls-7{fill:#faa577;}.cls-8{fill:#f7f2ef;}</style></defs><path class="cls-1" d="M713.28,422s12.5-20,9.05-20.36S709,420.12,708.59,420c-.76-.32,4.19-10.63,2-11.8-3-1.61-6.74,12.93-8.91,21.7s-36.92,53.44-36.92,53.44l15.41,15.86s30.28-55.55,33.57-56.33,21.85-6.85,16-7.95a72.47,72.47,0,0,0-11.18-1,.68.68,0,0,1-.46-1.16c4.28-4.16,18.45-18.23,15-19.25-4.08-1.2-15.22,12.43-15.49,12.1-.88-1.11,14-14.77,13.33-19.75C730,398.64,713,422.33,713,422.33Z" transform="translate(-291.15 -377.4)"/><polygon class="cls-1" points="107.95 39.21 64 31.4 59.26 51.97 101.7 64.99 107.95 39.21"/><path class="cls-2" d="M349.88,429.68l4.93-21.4,44.84,8L393.18,443Zm5.61-20.36L351,429.06l41.58,12.76,6-24.85Z" transform="translate(-291.15 -377.4)"/><path class="cls-3" d="M778.74,531.64a39.78,39.78,0,0,0-28.52-16.4c-19.13-1.71-31-21.6-38.5-13.11s-11.8,13.82-20.26,9.5-7.5-5.19-11.61-4.29-8,7.66-8,7.66l45,84.71s11.67,5.09,21.59-9.53c6.34-9.34,10.3,8.45,29.58,1.56C779.2,587.74,802.08,561.06,778.74,531.64Z" transform="translate(-291.15 -377.4)"/><polygon class="cls-1" points="63.1 277.69 30.63 299.23 43.71 316.13 78.55 297.42 63.1 277.69"/><path class="cls-2" d="M321.13,676.51l33.22-22,16,20.48L334.74,694.1Zm33-20.82-31.73,21L335,693l34-18.28Z" transform="translate(-291.15 -377.4)"/><path class="cls-4" d="M587.76,492.76s-13.89-19-15.54-16,12.23,19.22,11.91,19.56c-.58.6-8.32-7.83-10.22-6.22-2.62,2.21,9.5,11.05,16.84,16.32s24.48,53.33,24.48,53.33l20.22-15.4s-28.67-41-28.18-44.31,1.75-22.82-1.44-17.81a72,72,0,0,0-5.1,10,.68.68,0,0,1-1.25,0c-2.27-5.52-10.08-23.9-12.32-21.05-2.62,3.35,5.89,18.75,5.49,18.88-1.36.4-8.53-18.45-13.39-19.71-7-1.82,8.72,22.75,8.72,22.75Z" transform="translate(-291.15 -377.4)"/><path class="cls-1" d="M614.8,559.93c-.17-.48-17.18-48-24.32-53.11-8.34-6-17.26-12.66-17.38-15.82a1.47,1.47,0,0,1,.52-1.22c1.38-1.17,4.27,1.09,7.91,4.18l1,.85-1.14-1.49c-5.51-7.23-10.8-14.47-9.57-16.74a1,1,0,0,1,.86-.57c1.93-.13,6.68,5.25,10.47,10-3.45-6-7.24-13.62-5.79-15.61.27-.38.84-.76,2-.46,3.21.84,7,8.19,10.06,14.1l.54,1c-2.8-6.31-4.81-12-3.16-14.14a1.14,1.14,0,0,1,1.08-.45c.88.12,2.51,1.2,6.45,9.16,2.28,4.62,4.46,9.78,5.56,12.45a.21.21,0,0,0,.2.14.23.23,0,0,0,.22-.14A71.74,71.74,0,0,1,605.45,482c.2-.32.81-1.27,1.59-1,.44.17,1.48.56,1.33,8.9-.08,4.23-.44,8.72-.66,10.2-.34,2.31,17.06,28.2,28.11,44l.25.35-21.06,16Z" transform="translate(-291.15 -377.4)"/><path class="cls-1" d="M738.17,577.72S710.53,596,709.85,598c-2.31,7-20,27.47-18.91,30.3s-23.4-34-23.4-34L663,567.53l12.37,2.67s7.83,4.08,12.77,4.8,33.25-17.6,33.25-17.6Z" transform="translate(-291.15 -377.4)"/><path class="cls-1" d="M728.14,583.89c4.91,1.85,14.15,4.64,18.92,1.46s.4-8.09-1.5-9.18c-1.26-.72,22.76-16.36,22.76-16.36l-24-37.34s-23.81,9.06-35.71,19.59-11,18.88-4.69,28.56a27,27,0,0,0,10.32,9.54Z" transform="translate(-291.15 -377.4)"/><path class="cls-5" d="M609.28,607.31s-40.12-114.5-66.53-136.48-157.87-61.25-157.87-61.25L374,440.5l138.65,64.82,35.6,82.3s-62.51-19-77.1-22.29-112.85,80.4-124.66,91.5L361.31,682l100.82-73s72.66,47.15,82.53,57.42c19.29,20.07,59.44,4.84,59.44,4.84Z" transform="translate(-291.15 -377.4)"/><path class="cls-6" d="M710.49,602.53c-2.22-6.34-43.73-10.58-23-28.47,7.17-6.21-14.31-37.1-1.2-68.35,2.4-5.74,18.28-14.09,8.61-18.15,0,0-20.1-11.29-20.68-11.49-13.45-4.75-11.27.15-23.69,29.48-6.86,16.21,2.12,37.5-6.93,56-5.67,11.59-29.62,26.13-39,32.79,0,0-1.26,76.93,0,76.8C628.89,668.47,718.27,624.7,710.49,602.53Z" transform="translate(-291.15 -377.4)"/><path class="cls-6" d="M706.26,603.47c-3-14.88-38-7.46-53.92-37.43-16.64-31.32-11.37-38.6-29.93-24.61-31.33,23.6-11.53,14,6.86,52.08,7.67,15.87,30.15,22.41,38.55,41.25C673.08,646.56,709.15,617.71,706.26,603.47Z" transform="translate(-291.15 -377.4)"/><path class="cls-7" d="M359.72,408.9s1.39-32.49-12.56-31.48-12.94,1.77-12.94,1.77l7.58,55.3,16.83-1.2S351.11,413.13,359.72,408.9Z" transform="translate(-291.15 -377.4)"/><path class="cls-7" d="M328.51,671S315.26,641.06,303,647.84s-11,7-11,7l30.12,47,14.26-8.13S322.48,678.43,328.51,671Z" transform="translate(-291.15 -377.4)"/><rect class="cls-8" x="279.16" y="675.72" width="57.99" height="3.22" transform="translate(-386.92 924.88) rotate(-122.66)"/><rect class="cls-8" x="310.57" y="404.79" width="57.99" height="3.22" transform="translate(-308.15 420.58) rotate(-97.8)"/><path class="cls-3" d="M757,534.48s-11.17-5.56-22.61.95l-4.37-6.91s14.81-12.22,20.49-7.83,4.13,6.54,4.13,6.54Z" transform="translate(-291.15 -377.4)"/><path class="cls-3" d="M751.22,530.59s.08,11.44-3.35,16.48l-2.1,3.07,18.29,19.55s12.85-15,10.27-19.87a51.12,51.12,0,0,0-6.48-9.49C766.11,538.16,751.22,530.59,751.22,530.59Z" transform="translate(-291.15 -377.4)"/></svg>