<svg id="Layer_1" data-name="Layer 1" xmlns="http://www.w3.org/2000/svg" xmlns:xlink="http://www.w3.org/1999/xlink" viewBox="0 0 1920 1080"><defs><style>.cls-1{fill:none;}.cls-2{clip-path:url(#clip-path);}.cls-3{fill:#191125;}.cls-4{opacity:0.3;}.cls-5{fill:#fff;}.cls-6{fill:#f7f2ef;}.cls-7{fill:#ede6e2;}.cls-8{fill:#252738;opacity:0.14;}</style><clipPath id="clip-path"><rect class="cls-1" width="1920" height="1080"/></clipPath></defs><g class="cls-2"><rect class="cls-3" width="1920" height="1080"/><g class="cls-4"><path class="cls-5" d="M2020.05-381.66a66,66,0,0,0,66,66,65.72,65.72,0,0,0,26.27-5.46,172.56,172.56,0,0,0-26.27,91.71,172.55,172.55,0,0,0,27,92.8,119.65,119.65,0,0,0-93,116.59,119.1,119.1,0,0,0,15.68,59.1,55.94,55.94,0,0,0-24.14,86.26A142.46,142.46,0,0,0,1952,222.25a44.52,44.52,0,0,0-64,40.11,45.32,45.32,0,0,0,.85,8.62,76.19,76.19,0,0,0-36.58,42.25,139.95,139.95,0,0,0-181.4,133.58c0,.8.05,1.6.06,2.4a64.6,64.6,0,0,0-47.1,56.92,134.26,134.26,0,0,0-44.07,84.33c-.33,0-.66-.05-1-.05A92.06,92.06,0,0,0,1492.29,651a66.12,66.12,0,0,0-64.46-2.16A144.5,144.5,0,0,0,1192,654a88.78,88.78,0,0,0-132.67,60,79.53,79.53,0,0,0-86.54-1.12A73.9,73.9,0,0,0,856.39,658a135,135,0,0,0-245.32,25.67,58.19,58.19,0,0,0-45.52-7.28,116.75,116.75,0,0,0-163.43-93,70.24,70.24,0,0,0-97.81-74.48,123.52,123.52,0,0,0-133.4-80.28c0-.4.06-.8.06-1.21a44.58,44.58,0,0,0-73.18-34.21,133.41,133.41,0,0,0-107.87-54.8,133,133,0,0,0-74.61,22.76c0-.16,0-.31,0-.46a53.39,53.39,0,0,0-8.08-28.23,89,89,0,0,0,35.4-71.07,88.84,88.84,0,0,0-21-57.52,58.89,58.89,0,0,0,21-45.16A59,59,0,0,0-96,103.4a104.56,104.56,0,0,0,.77-12.07,102.59,102.59,0,0,0-97-102.39c0-.09,0-.19,0-.28a44.44,44.44,0,0,0-8.28-25.85A68.91,68.91,0,0,0-143.69-105,68.52,68.52,0,0,0-157-145.55,140.55,140.55,0,0,0-95.2-262a140.08,140.08,0,0,0-33.5-91.07,48.56,48.56,0,0,0,32-34.32H-1270.83V2587H3190.83V-387.43H2020.32C2020.15-385.53,2020.05-383.61,2020.05-381.66Z"/></g><g class="cls-4"><path class="cls-5" d="M2199.58-330a38.91,38.91,0,0,0-.61,6.7,39.43,39.43,0,0,0,10.5,26.8,80.9,80.9,0,0,0-11.93-1A80.59,80.59,0,0,0,2117-216.91a80.57,80.57,0,0,0,63.52,78.73c-.21,2.42-.37,4.84-.37,7.31A85.61,85.61,0,0,0,2201-74.75a133.13,133.13,0,0,0-73.11,176.63c-1,0-1.9-.14-2.87-.14a55.07,55.07,0,0,0,0,110.13h.27a93.21,93.21,0,0,0-.88,75.12,61.47,61.47,0,0,0-31.65,74.46c-1,0-2-.15-3.05-.15A109.07,109.07,0,0,0,1984.9,501.1c-.82,0-1.62-.12-2.45-.12a50.17,50.17,0,0,0-46.24,30.69,52.16,52.16,0,0,0-66.27,19.92,87.76,87.76,0,0,0-70.37,50,123.88,123.88,0,0,0-115.08,123.55A125.33,125.33,0,0,0,1686,744.6,84.35,84.35,0,0,0,1642,772.41a123.9,123.9,0,0,0-123.6-23.11,65.37,65.37,0,0,0-116.08,41.29v.13a153.05,153.05,0,0,0-125.86,73.67,73.5,73.5,0,0,0-66.79-.76,53.12,53.12,0,0,0-35.06-17.54A101.39,101.39,0,0,0,1038,801.7a47.44,47.44,0,0,0-74.71,19.1,144.7,144.7,0,0,0-175.07,56.93,51.5,51.5,0,0,0-68.08,1.9,120.24,120.24,0,0,0-172.54-75,85.79,85.79,0,0,0-93.86-.17,37.54,37.54,0,0,0-29.18-13.89h-.29c.13-1.92.29-3.84.29-5.8a84.19,84.19,0,0,0-84.19-84.2c-.56,0-1.1.07-1.66.08A55.51,55.51,0,0,0,305,635.48a99.4,99.4,0,0,0-140.24-53.33,43.89,43.89,0,0,0-42-31,45,45,0,0,0-5.6.39,58.14,58.14,0,0,0-88-25.51,104.21,104.21,0,0,0-81.93-47.1,55.33,55.33,0,0,0-32-18.31,61.73,61.73,0,0,0,12.47-37.22A61.82,61.82,0,0,0-74,408.9a37.13,37.13,0,0,0,16.4-30.81,37.05,37.05,0,0,0-11.5-26.84,99.81,99.81,0,0,0,6.9-36.37A100.31,100.31,0,0,0-153.59,215a56.4,56.4,0,0,0-51.26-36.59A82.43,82.43,0,0,0-263,133.69c.09-1,.16-2.07.16-3.13a37.19,37.19,0,0,0-7.2-22,84.64,84.64,0,0,0,21.87-56.81A84.55,84.55,0,0,0-260.11,8.51,32.22,32.22,0,0,0-244.4-19.15c0-.59-.06-1.16-.09-1.73a57.18,57.18,0,0,0,30.86-50.76,57.22,57.22,0,0,0-57.22-57.22c-.83,0-1.64.09-2.46.13a95.59,95.59,0,0,0,8.06-38.42,95.86,95.86,0,0,0-54.89-86.61,44.18,44.18,0,0,0,11.2-29.41,44.23,44.23,0,0,0-6.91-23.74,93.29,93.29,0,0,0,17.74-21,45.59,45.59,0,0,0,5.13.31,44.76,44.76,0,0,0,44.76-44.76,43,43,0,0,0-.23-4.56A53.14,53.14,0,0,0-231-416.24a53.71,53.71,0,0,0-1.3-11.35H-976v2581.3H2896V-427.59H2099.83A127.83,127.83,0,0,0,2199.58-330Z"/></g><path class="cls-5" d="M-545.7,1185.16H2465.7V137.89a141.14,141.14,0,0,0-53.2,169,52.38,52.38,0,0,0,6.91,81.36,86.57,86.57,0,0,0,15.11,73,78,78,0,0,0-45.14,25.84,147.1,147.1,0,0,0-115.64,66.47,82.06,82.06,0,0,0-124.18,36,60.73,60.73,0,0,0-7.91-.56,61.94,61.94,0,0,0-59.21,43.77,140.32,140.32,0,0,0-197.94,75.27,78.42,78.42,0,0,0-47.59,92c-.78,0-1.55-.12-2.33-.12a118.84,118.84,0,0,0-118.84,118.84c0,2.77.23,5.48.41,8.2l-.41,0a53,53,0,0,0-41.18,19.61,121.06,121.06,0,0,0-132.48.24,169.7,169.7,0,0,0-243.53,105.82,72.69,72.69,0,0,0-96.08-2.67,204.19,204.19,0,0,0-247.11-80.36,67,67,0,0,0-105.44-27,143.12,143.12,0,0,0-192.75,62.65,75,75,0,0,0-49.49,24.75,103.75,103.75,0,0,0-94.26,1.08,216,216,0,0,0-177.65-104c0-.06,0-.12,0-.18a92.28,92.28,0,0,0-163.84-58.28A174.94,174.94,0,0,0-2.52,901.33a119,119,0,0,0-62.19-39.24,175.36,175.36,0,0,0,2.15-27.39c0-92.4-71.66-168-162.43-174.39a123.84,123.84,0,0,0-99.31-70.64A73.8,73.8,0,0,0-387,554.74a73.48,73.48,0,0,0-30.84,6.81,70.82,70.82,0,0,0-65.26-43.32c-1.17,0-2.3.12-3.45.18a154.09,154.09,0,0,0,6.23-43.15,154,154,0,0,0-65.37-126Z"/><circle class="cls-6" cx="960" cy="38.06" r="355.94" transform="translate(254.27 689.97) rotate(-45)"/><circle class="cls-7" cx="1044.73" cy="194.73" r="84.73"/><circle class="cls-7" cx="1150.07" cy="263.17" r="33.96"/><circle class="cls-7" cx="725.9" cy="223.11" r="28.38"/></g><path class="cls-6" d="M628.8,96c3.22,0,3.22-5,0-5s-3.22,5,0,5Z"/><path class="cls-6" d="M560.4,243.59c3.22,0,3.22-5,0-5s-3.22,5,0,5Z"/><path class="cls-6" d="M1312.8,519c3.22,0,3.22-5,0-5s-3.22,5,0,5Z"/><path class="cls-6" d="M1253.4,153.59c3.22,0,3.22-5,0-5s-3.22,5,0,5Z"/><path class="cls-6" d="M1170.6,445.19c3.22,0,3.22-5,0-5s-3.22,5,0,5Z"/><path class="cls-6" d="M591,580.19c3.22,0,3.22-5,0-5s-3.22,5,0,5Z"/><path class="cls-6" d="M682.8,448.79c3.22,0,3.22-5,0-5s-3.22,5,0,5Z"/><path class="cls-6" d="M594.6,211.49a1,1,0,0,0,0-2,1,1,0,0,0,0,2Z"/><path class="cls-6" d="M600,119.19a.5.5,0,0,0,0-1,.5.5,0,0,0,0,1Z"/><path class="cls-6" d="M630.6,134.09a1,1,0,0,0,0-2,1,1,0,0,0,0,2Z"/><path class="cls-6" d="M1316.4,292.49a1,1,0,0,0,0-2,1,1,0,0,0,0,2Z"/><path class="cls-6" d="M1329,483.29a1,1,0,0,0,0-2,1,1,0,0,0,0,2Z"/><path class="cls-6" d="M672,467.09a1,1,0,0,0,0-2,1,1,0,0,0,0,2Z"/><path class="cls-6" d="M546,472.49a1,1,0,0,0,0-2,1,1,0,0,0,0,2Z"/><path class="cls-6" d="M549.6,562.49a1,1,0,0,0,0-2,1,1,0,0,0,0,2Z"/><path class="cls-6" d="M983.4,180.89a1,1,0,0,0,0-2,1,1,0,0,0,0,2Z"/><path class="cls-6" d="M634.2,569.69a1,1,0,0,0,0-2,1,1,0,0,0,0,2Z"/><path class="cls-6" d="M1408.2,443.69a1,1,0,0,0,0-2,1,1,0,0,0,0,2Z"/><path class="cls-6" d="M1395.6,258.29a1,1,0,0,0,0-2,1,1,0,0,0,0,2Z"/><path class="cls-6" d="M1294.8,150.29a1,1,0,0,0,0-2,1,1,0,0,0,0,2Z"/><path class="cls-6" d="M1253.4,119.69a1,1,0,0,0,0-2,1,1,0,0,0,0,2Z"/><path class="cls-6" d="M1140,179.09a1,1,0,0,0,0-2,1,1,0,0,0,0,2Z"/><path class="cls-6" d="M744,80.09a1,1,0,0,0,0-2,1,1,0,0,0,0,2Z"/><path class="cls-6" d="M708,189.89a1,1,0,0,0,0-2,1,1,0,0,0,0,2Z"/><path class="cls-6" d="M524.4,404.09a1,1,0,0,0,0-2,1,1,0,0,0,0,2Z"/><path class="cls-6" d="M1219.2,598.49a1,1,0,0,0,0-2,1,1,0,0,0,0,2Z"/><path class="cls-6" d="M731.4,636.29a1,1,0,0,0,0-2,1,1,0,0,0,0,2Z"/><path class="cls-6" d="M508.2,548.09a1,1,0,0,0,0-2,1,1,0,0,0,0,2Z"/><path class="cls-6" d="M560.4,333.89a1,1,0,0,0,0-2,1,1,0,0,0,0,2Z"/><path class="cls-6" d="M490.2,161.09a1,1,0,0,0,0-2,1,1,0,0,0,0,2Z"/><path class="cls-6" d="M475.8,269.09a1,1,0,0,0,0-2,1,1,0,0,0,0,2Z"/><path class="cls-6" d="M1447.8,373.49a1,1,0,0,0,0-2,1,1,0,0,0,0,2Z"/><path class="cls-6" d="M1341.6,368.09a1,1,0,0,0,0-2,1,1,0,0,0,0,2Z"/><path class="cls-6" d="M1410,123.29a1,1,0,0,0,0-2,1,1,0,0,0,0,2Z"/><path class="cls-6" d="M1377.6,546.29a1,1,0,0,0,0-2,1,1,0,0,0,0,2Z"/><path class="cls-5" d="M402.53,390.46c4.51,0,4.51-7,0-7s-4.51,7,0,7Z"/><path class="cls-5" d="M71.64,246.46c4.5,0,4.51-7,0-7s-4.51,7,0,7Z"/><path class="cls-5" d="M293.77,137.69c4.5,0,4.51-7,0-7s-4.52,7,0,7Z"/><path class="cls-5" d="M1569.85,421.1c4.51,0,4.51-7,0-7s-4.51,7,0,7Z"/><path class="cls-5" d="M1667.89,150c4.51,0,4.52-7,0-7s-4.51,7,0,7Z"/><path class="cls-5" d="M1242,350.63c4.51,0,4.51-7,0-7s-4.51,7,0,7Z"/><path class="cls-5" d="M1035.21,434.88c4.51,0,4.51-7,0-7s-4.51,7,0,7Z"/><path class="cls-5" d="M831.47,572.76c4.5,0,4.51-7,0-7s-4.51,7,0,7Z"/><path class="cls-5" d="M152.83,93.27c4.5,0,4.51-7,0-7s-4.51,7,0,7Z"/><path class="cls-5" d="M1534.62,228.07c4.5,0,4.51-7,0-7s-4.51,7,0,7Z"/><path class="cls-5" d="M1802.7,174.49c2.58,0,2.58-4,0-4s-2.58,4,0,4Z"/><path class="cls-5" d="M1549.94,96.36c2.57,0,2.57-4,0-4s-2.58,4,0,4Z"/><path class="cls-5" d="M1563.72,333.81c2.58,0,2.58-4,0-4s-2.57,4,0,4Z"/><path class="cls-5" d="M304.49,329.21c2.57,0,2.58-4,0-4s-2.58,4,0,4Z"/><path class="cls-5" d="M198.79,206.66c2.57,0,2.58-4,0-4s-2.58,4,0,4Z"/><path class="cls-5" d="M125.26,309.3c2.57,0,2.57-4,0-4s-2.58,4,0,4Z"/><path class="cls-5" d="M64,64.19c2.57,0,2.58-4,0-4s-2.58,4,0,4Z"/><path class="cls-5" d="M356.57,96.36c2.58,0,2.58-4,0-4s-2.57,4,0,4Z"/><path class="cls-5" d="M396.4,290.91c2.58,0,2.58-4,0-4s-2.57,4,0,4Z"/><path class="cls-5" d="M1663.3,295.51c2.57,0,2.58-4,0-4s-2.58,4,0,4Z"/><path class="cls-5" d="M1790.45,82.57c2.57,0,2.57-4,0-4s-2.58,4,0,4Z"/><rect class="cls-8" width="1920" height="1080"/></svg>