<svg id="Layer_1" data-name="Layer 1" xmlns="http://www.w3.org/2000/svg" viewBox="0 0 310.83 199.25"><defs><style>.cls-1{fill:#56425e;}.cls-2{fill:none;stroke:#56425e;stroke-miterlimit:10;stroke-width:2px;}</style></defs><path class="cls-1" d="M647.07,609.76c-.79,16.9-22.4,29.87-44.41,29.87-29.08,0-44-8.26-50.3-25.16-10.61,16.51-26.73,25.16-51.88,25.16-42.44,0-67.6-22-67.6-54.24,0-52.27,47.95-67.59,116.73-67.59v-5.51c0-22-1.18-39.3-16.9-41.65-11.4-1.58-22.4,1.57-27.12,16.5-7.47,24-22.8,29.48-40.09,23.58-10.61-3.93-20.43-16.5-13.75-33.4,11.39-29.87,51.48-36.95,84.89-36.95,54.23,0,84.49,24.37,84.49,81.75V530c0,27.12-1.18,50.3,7.47,59.34C638.42,599.54,647.86,598,647.07,609.76Zm-94.71-55.42c0-12.57-5.11-13-18.47-10.61-14.94,2.36-27.12,13.76-28.3,31-.79,16.51,6.68,28.3,24,28.3,15.72,0,22.8-12.58,22.8-33Z" transform="translate(-380.09 -440.37)"/><ellipse class="cls-2" cx="535.5" cy="540" rx="51.5" ry="155" transform="translate(-431.66 583.05) rotate(-84.71)"/><path class="cls-1" d="M649.48,474.79c-9,1.77-11.14,4.28-12.51,15.59a.65.65,0,0,1-1.29,0c-1.37-11.31-3.55-13.82-12.5-15.59a.65.65,0,0,1,0-1.28c9-1.77,11.13-4.28,12.5-15.59a.65.65,0,0,1,1.29,0c1.37,11.31,3.55,13.82,12.51,15.59A.65.65,0,0,1,649.48,474.79Z" transform="translate(-380.09 -440.37)"/><path class="cls-1" d="M442.36,525.93c-10.92,2.16-13.57,5.22-15.25,19a.79.79,0,0,1-1.57,0c-1.67-13.79-4.33-16.85-15.25-19a.8.8,0,0,1,0-1.56c10.92-2.16,13.58-5.22,15.25-19a.79.79,0,0,1,1.57,0c1.68,13.79,4.33,16.85,15.25,19A.8.8,0,0,1,442.36,525.93Z" transform="translate(-380.09 -440.37)"/></svg>