<svg id="Layer_1" data-name="Layer 1" xmlns="http://www.w3.org/2000/svg" viewBox="0 0 969 161.37"><defs><style>.cls-1{fill:#a2b6f4;}.cls-2{fill:#1f3260;}.cls-3{fill:#ffd45d;}.cls-4{fill:#d8451e;}.cls-5{fill:#ffa197;}.cls-6{fill:#cc2d25;}</style></defs><rect y="6.69" width="969" height="154.68" rx="30.87"/><rect class="cls-1" width="969" height="154.68" rx="30.87"/><path class="cls-2" d="M364.25,546.45v51.38H350.07V546.45H330.46V533.38h53.4v13.07Z" transform="translate(-55.5 -485.98)"/><path class="cls-2" d="M463.22,598.29H450.88l-14.54-42.17-14.55,42.17H409.45l-22-64.91h15.19L416,577l14.46-43.82H442.6L457.05,577l13.35-43.64h14.83Z" transform="translate(-55.5 -485.98)"/><path class="cls-2" d="M494.06,597.83V533.38h14.18v64.45Z" transform="translate(-55.5 -485.98)"/><path class="cls-2" d="M551.24,546.45v51.38H537.06V546.45H517.45V533.38h53.4v13.07Z" transform="translate(-55.5 -485.98)"/><path class="cls-2" d="M608.59,546.45v51.38H594.41V546.45H574.8V533.38h53.4v13.07Z" transform="translate(-55.5 -485.98)"/><path class="cls-2" d="M636.76,597.83V533.38h48.62V546H650.85v13.08h30.38v12.61H650.85v13.54h35v12.61Z" transform="translate(-55.5 -485.98)"/><path class="cls-2" d="M735.28,597.83l-13.82-20.62H710.32v20.62H696.15V533.38h29.46c15.19,0,24.31,8,24.31,21.27v.18c0,10.41-5.62,16.94-13.82,20l15.75,23Zm.27-42.44c0-6.08-4.23-9.21-11.14-9.21H710.32v18.51h14.37c6.9,0,10.86-3.69,10.86-9.12Z" transform="translate(-55.5 -485.98)"/><rect y="6.69" width="969" height="154.68" rx="30.87"/><rect class="cls-3" width="969" height="154.68" rx="30.87"/><path class="cls-4" d="M272.46,593.63V529.18h14.18v64.45Z" transform="translate(-55.5 -485.98)"/><path class="cls-4" d="M345.65,593.63l-31.21-41v41h-14V529.18h13.07l30.2,39.68V529.18h14v64.45Z" transform="translate(-55.5 -485.98)"/><path class="cls-4" d="M393.8,594.55a41,41,0,0,1-27.34-10.31l8.37-10c5.8,4.79,11.88,7.83,19.25,7.83,5.8,0,9.3-2.31,9.3-6.08v-.19c0-3.59-2.21-5.43-13-8.19-13-3.31-21.36-6.91-21.36-19.7v-.19c0-11.69,9.4-19.42,22.56-19.42a37.31,37.31,0,0,1,23.94,8.19l-7.36,10.68c-5.71-4-11.33-6.35-16.76-6.35s-8.29,2.48-8.29,5.61v.19c0,4.23,2.76,5.61,13.9,8.47,13.08,3.41,20.44,8.1,20.44,19.33v.19C417.46,587.37,407.7,594.55,393.8,594.55Z" transform="translate(-55.5 -485.98)"/><path class="cls-4" d="M455.3,542.25v51.38H441.12V542.25H421.51V529.18h53.4v13.07Z" transform="translate(-55.5 -485.98)"/><path class="cls-4" d="M523.15,593.63l-5.89-14.46H490l-5.89,14.46H469.66l27.62-64.91h13.08L538,593.63Zm-19.51-47.88-8.57,20.9H512.2Z" transform="translate(-55.5 -485.98)"/><path class="cls-4" d="M572.5,594.73c-20.07,0-33.88-14.09-33.88-33.14v-.19c0-18.32,14.27-33.33,33.79-33.33,11.6,0,18.6,3.13,25.32,8.84l-8.93,10.77c-5-4.14-9.39-6.53-16.85-6.53-10.31,0-18.51,9.11-18.51,20.07v.18c0,11.79,8.1,20.44,19.52,20.44A22.6,22.6,0,0,0,586.31,578v-9.2H572V556.52h28v28A41.81,41.81,0,0,1,572.5,594.73Z" transform="translate(-55.5 -485.98)"/><path class="cls-4" d="M650.48,593.63,636.67,573H625.53v20.63H611.35V529.18h29.46c15.2,0,24.31,8,24.31,21.26v.19c0,10.4-5.62,16.94-13.81,20l15.74,23Zm.28-42.45c0-6.08-4.24-9.21-11.14-9.21H625.53v18.51h14.36c6.91,0,10.87-3.68,10.87-9.11Z" transform="translate(-55.5 -485.98)"/><path class="cls-4" d="M723.58,593.63l-5.89-14.46H690.44l-5.9,14.46H670.09l27.62-64.91h13.07l27.63,64.91Zm-19.52-47.88-8.56,20.9h17.13Z" transform="translate(-55.5 -485.98)"/><path class="cls-4" d="M796.41,593.63V551.55l-18.14,27.53h-.37L760,551.83v41.8H746V529.18h15.29l16.94,27.25,16.94-27.25h15.28v64.45Z" transform="translate(-55.5 -485.98)"/><rect y="6.69" width="969" height="154.68" rx="30.87"/><rect class="cls-5" width="969" height="154.68" rx="30.87"/><path class="cls-6" d="M186.66,546.45v51.38H172.48V546.45H152.87V533.38h53.4v13.07Z" transform="translate(-55.5 -485.98)"/><path class="cls-6" d="M255.15,597.83V572H229v25.87H214.83V533.38H229v25.5h26.15v-25.5h14.18v64.45Z" transform="translate(-55.5 -485.98)"/><path class="cls-6" d="M282.49,597.83V533.38h48.62V546H296.58v13.08H327v12.61H296.58v13.54h35v12.61Z" transform="translate(-55.5 -485.98)"/><path class="cls-6" d="M392.15,578.5H381.37v19.33H367.19V533.38h26.34c15.37,0,24.67,9.12,24.67,22.28v.19C418.2,570.76,406.6,578.5,392.15,578.5Zm11.69-22.56c0-6.35-4.42-9.76-11.51-9.76h-11v19.7H392.6c7.09,0,11.24-4.23,11.24-9.76Z" transform="translate(-55.5 -485.98)"/><path class="cls-6" d="M426.39,597.83V533.38H475V546H440.48v13.08h30.38v12.61H440.48v13.54h35v12.61Z" transform="translate(-55.5 -485.98)"/><path class="cls-6" d="M533.74,597.83l-5.89-14.45H500.6l-5.89,14.45H480.25l27.62-64.91H521l27.62,64.91ZM514.23,550l-8.57,20.9h17.13Z" transform="translate(-55.5 -485.98)"/><path class="cls-6" d="M582.26,598.94c-19,0-33-14.64-33-33.15v-.18c0-18.33,13.81-33.33,33.6-33.33,12.16,0,19.43,4.05,25.41,9.94l-9,10.4c-5-4.51-10-7.27-16.48-7.27-10.86,0-18.69,9-18.69,20.07v.19c0,11,7.64,20.25,18.69,20.25,7.37,0,11.88-3,16.94-7.55l9,9.12C602.06,594.52,594.69,598.94,582.26,598.94Z" transform="translate(-55.5 -485.98)"/><path class="cls-6" d="M658,597.83V572H631.88v25.87H617.7V533.38h14.18v25.5H658v-25.5h14.18v64.45Z" transform="translate(-55.5 -485.98)"/><path class="cls-6" d="M761.05,597.83V555.75l-18.14,27.53h-.36l-18-27.25v41.8h-13.9V533.38H726l16.94,27.25,17-27.25h15.28v64.45Z" transform="translate(-55.5 -485.98)"/><path class="cls-6" d="M789,597.83V533.38h14.17v64.45Z" transform="translate(-55.5 -485.98)"/><path class="cls-6" d="M816.93,597.83V533.38h14.18v51.56h32.14v12.89Z" transform="translate(-55.5 -485.98)"/><path class="cls-6" d="M913.24,597.83l-20-27.44-7.46,7.74v19.7H871.62V533.38H885.8v28.17L912,533.38h17.12l-26.24,27.35,27.44,37.1Z" transform="translate(-55.5 -485.98)"/></svg>