<svg id="Layer_1" data-name="Layer 1" xmlns="http://www.w3.org/2000/svg" viewBox="0 0 386 386"><defs><style>.cls-1{fill:#56425e;}.cls-2{fill:#fff;}</style></defs><rect class="cls-1" width="386" height="386" rx="61.37"/><path class="cls-2" d="M625.22,482.6c-13.08,2.58-16.27,6.26-18.27,22.78a1,1,0,0,1-1.89,0c-2-16.52-5.19-20.2-18.28-22.78a1,1,0,0,1,0-1.87c13.09-2.59,16.28-6.26,18.28-22.79a1,1,0,0,1,1.89,0c2,16.53,5.19,20.2,18.27,22.79A1,1,0,0,1,625.22,482.6Z" transform="translate(-347 -347)"/><path class="cls-2" d="M605.94,601.71c-.56,12-15.89,21.18-31.5,21.18-20.63,0-31.23-5.85-35.69-17.84-7.52,11.71-19,17.84-36.79,17.84-30.11,0-47.95-15.61-47.95-38.47,0-37.07,34-47.94,82.79-47.94v-3.91c0-15.61-.83-27.87-12-29.54-8.09-1.12-15.89,1.11-19.24,11.7-5.29,17-16.17,20.91-28.43,16.73-7.53-2.79-14.5-11.71-9.76-23.7,8.08-21.18,36.52-26.2,60.21-26.2,38.47,0,59.94,17.28,59.94,58v5.58c0,19.23-.84,35.68,5.29,42.09C599.8,594.46,606.49,593.34,605.94,601.71ZM538.75,562.4c0-8.92-3.62-9.2-13.1-7.53a23.32,23.32,0,0,0-20.07,22c-.56,11.7,4.74,20.07,17,20.07,11.15,0,16.16-8.92,16.16-23.42Z" transform="translate(-347 -347)"/></svg>