<svg id="Layer_1" data-name="Layer 1" xmlns="http://www.w3.org/2000/svg" xmlns:xlink="http://www.w3.org/1999/xlink" viewBox="0 0 600 600"><defs><style>.cls-1{fill:none;}.cls-2,.cls-6{fill:#f49964;}.cls-2{opacity:0.5;}.cls-3{fill:#e87a72;}.cls-4{fill:#ffefe6;}.cls-5{clip-path:url(#clip-path);}.cls-7{fill:#24213b;}.cls-8{fill:#ffcb15;}.cls-9{fill:#ffb288;}.cls-10{fill:#fe9150;opacity:0.7;}.cls-11{fill:#333;}.cls-12{fill:#fbffff;}.cls-13{fill:#ff6c4b;}.cls-14{fill:#f7533f;}.cls-15{fill:#ef3f3a;}.cls-16{fill:#56425e;}.cls-17{fill:#ffdfca;}.cls-18{fill:#ffb392;}.cls-19{fill:#f9d6b1;}.cls-20{fill:#ce4d4d;}.cls-21{fill:#cdd7de;}.cls-22{fill:#dfe9ef;}.cls-23{fill:#eff7fc;}.cls-24{fill:#ffa49f;}.cls-25{fill:#1c1c1b;}.cls-26{fill:#fc908b;}.cls-27{fill:#6eb7b1;}</style><clipPath id="clip-path"><rect class="cls-1" x="175.6" y="125.49" width="265.05" height="299.89" transform="translate(34.12 -33.96) rotate(6.68)"/></clipPath></defs><path class="cls-2" d="M438.12,458.35c-2.43-8.28,15.83-15.65,21.48-16.68,12.86-2.34,24.47,5.45,30.81,16.14,9.54,16.09,10.31,54.78-16.78,51.73-15.89-1.78-39.5-22.09-38.58-39.6.5-9.59,8.53-16.43,16.9-8,2.58,2.59,4.35,6.83,5.95,10a106.53,106.53,0,0,1,8.62,22.59c2.08,8.66,3.11,18.39.11,27-4.45,12.74-18.77,22.49-31.78,15.39-11.71-6.38-15.11-19.82-15.38-32.27-.21-9.62.32-28.69,8.22-35.83,16.49-14.92,15.91,31.59,14.87,39.56-1.8,13.77-7.06,43.31-25.79,42.94-13.3-.25-20-16-21.79-27-2.05-12.63.12-27.3,6.86-38.31,2.47-4,9.38-13.64,14.71-14.65,7.42-1.4,8.57,5.9,8.43,11-.26,9.16-2.61,18.44-5.31,27.15-4.7,15.17-15,43.57-36.07,37-18.7-5.85-20.24-26.6-14.9-42a147,147,0,0,1,21.95-40.72c6.28-8.21,22.35-27.36,34.52-18.3,15.35,11.43-3.34,45.32-11.05,56C408.41,509.3,400,518.6,389.72,520c-12.39,1.66-23.25-11.21-26-22.23-3.2-12.83,2.81-29.12,8.45-40.47,4.49-9,16.88-29.25,26.74-14.42,10.66,16-8.74,51-29.14,45.52-21.12-5.7-10.64-40.06-3.47-53.26a82.38,82.38,0,0,1,17-21.56C394,404,414.74,397.12,418.41,417c2.83,15.39-13.49,51-33,38.37-18.13-11.73-13-39.73-4.71-55.31,5.2-9.81,13.1-19.33,23.15-24.41,12.12-6.12,24-2,34.36,5.64,18.26,13.45,18.84,31.69,6.5,49.55-10.65,15.4-30.22,28-46.66,12.68-24.81-23.15,3.62-60.57,31.07-63.39,24.95-2.57,44.26,19.89,37.29,44-5.13,17.76-23,42.71-44.87,34.95-18.76-6.65-20.22-33.39-11.74-48.47,6.44-11.44,17.93-19.65,29.95-24.44,25.74-10.27,68.45-2.65,64.7,33.58C503.08,433,494,446.32,480.3,447.85c-11.72,1.3-24.15-4.76-33.16-11.89-10.6-8.38-17.07-21.69-9-34.21,9.25-14.28,24-14,35.29-2.71,18.23,18.21,20.45,40.65,6.23,61.95-12.68,19-41.53,35.1-55.16,7.7-8.19-16.46-4.77-40.82,11.74-50.78,3.05-1.84.54-6.8-2.52-5-20,12-24.3,41.42-12.76,60.84,15,25.22,43.44,15.39,58.82-3.58,20.35-25.11,20-55-4.68-77.25-8-7.22-18.24-11.44-28.53-6.39s-18.41,17.1-17.88,28.71c1.13,24.59,37.87,45,59.93,36.53,24.23-9.28,26.78-43.62,11.41-61.36-27-31.17-87.8-10-99,26.43-6.16,20.09,3.22,48.52,27.36,48.95,26.56.48,46.3-31.1,45.38-55.19-1-24.91-28-40.41-50.91-35-19.35,4.54-36.82,22-39.5,42-2.51,18.68,12.64,40.33,32.88,38.88,22.37-1.61,42.45-28.21,43.1-49.6.68-22.62-29.12-44.58-50.56-39.12-26.1,6.64-45.1,41.56-40.67,67.22,3.32,19.22,21,38.09,39.74,22.5,14-11.65,26.66-47.07,4.9-57.49-23.93-11.45-48.32,22.7-55.38,41.37-6.61,17.48-10.88,55.11,18.34,53.16,20.87-1.4,37.75-32.72,29.71-51.34-7.95-18.41-24-10.65-32.8,2.17-10.11,14.73-20.12,39.87-13,57.63,5.87,14.75,20.55,27.13,36.76,20.87,16.53-6.4,27.69-24.93,33.87-40.61,4.55-11.52,10.33-31.6-.72-41.46-14.25-12.72-33.18,5.92-41.68,16.51-12.72,15.86-28.82,41.28-28.19,62.6.62,21,24.87,41.61,44.36,27.19,18-13.33,28.21-48.94,26.49-70.45-.68-8.48-4.33-15.74-13.72-12.6-12.57,4.21-21.37,18.52-25.05,30.38-6.09,19.65-2.53,64.37,27.58,61.34,23.17-2.33,28.31-37.86,29.56-55.73.69-10-2.3-53.15-21.27-40.44-11,7.36-13.25,27.71-13.65,39.48-.46,13.63,1.91,28.55,12.7,38,20.15,17.66,45.3-1.83,47.19-24.7,1.06-12.7-2.76-25.46-7.77-37-3.57-8.23-8.39-21-17.75-24.21-8.07-2.78-16.47,3.69-18.54,11.48-2.76,10.37,4.07,22.18,10,30.11,11.73,15.58,40.49,32.78,55.8,12,14.89-20.17,5-56-17.07-66.74-10.89-5.32-22.26-3.58-32.56,2-6.58,3.58-15.88,9.72-13.33,18.39,1,3.41,6.45,2.31,5.44-1.13Z"/><rect class="cls-3" x="147.61" y="99.99" width="314.43" height="407.16" transform="translate(37.37 -33.39) rotate(6.68)"/><rect class="cls-4" x="175.6" y="125.49" width="265.05" height="299.89" transform="translate(34.12 -33.96) rotate(6.68)"/><g class="cls-5"><path class="cls-6" d="M392.83,383.76c-7.67-16.06-46.9-29.08-67.2-33.84-2.4,2.59-10,8.86-27.2,6.84-16-1.87-22.84-9.38-25.29-13.08-14.22-.26-46,.34-63,9.73a22.22,22.22,0,0,0-9.8,11.1c-.06.16-.12.31-.19.47,14.51,1,31.54,2.21,38.86,2.56,11.72.55,114.84,16.4,155.11,20A38.51,38.51,0,0,0,392.83,383.76Z"/><path class="cls-6" d="M286.56,348.09A14.38,14.38,0,0,0,290,349.6c.57.19,1.19.38,1.85.56l1,.26c.71.18,1.48.34,2.31.49s1.7.3,2.63.43l1.46.19c1,.11,1.94.2,2.82.27s1.73.1,2.52.12,1.52,0,2.21,0c.47,0,.9,0,1.32-.07l.32,0c.4,0,.8-.07,1.16-.12h0c.56-.07,1.08-.16,1.55-.25l.91-.21.21-.06.78-.23c.37-.12.71-.25,1-.38s.57-.27.82-.41.46-.28.65-.41l.26-.2h0c.16-.14.3-.26.43-.39a2.91,2.91,0,0,0,.68-.94l-.8-.11L283,344.23S283.12,346.14,286.56,348.09Z"/><path class="cls-7" d="M298.43,356.76c17.24,2,24.8-4.25,27.2-6.84-3.56-.83-6.53-1.41-8.65-1.7a2.91,2.91,0,0,1-.68.94c-.13.13-.27.25-.43.39h0l-.26.2c-.19.13-.41.27-.65.41s-.52.27-.82.41-.64.26-1,.38l-.78.23-.21.06-.91.21c-.47.09-1,.18-1.55.25h0c-.36.05-.76.08-1.16.12l-.32,0c-.42,0-.85.06-1.32.07-.69,0-1.43,0-2.21,0s-1.63-.06-2.52-.12-1.83-.16-2.82-.27l-1.46-.19c-.93-.13-1.81-.27-2.63-.43s-1.6-.31-2.31-.49l-1-.26c-.66-.18-1.28-.37-1.85-.56a14.38,14.38,0,0,1-3.46-1.51c-3.44-1.95-3.56-3.86-3.56-3.86l-2.63-.31s-2.74-.16-7.23-.24C275.59,347.38,282.43,354.89,298.43,356.76Z"/><path class="cls-8" d="M309.67,351.7a27.9,27.9,0,0,1-2.81.21A27.9,27.9,0,0,0,309.67,351.7Z"/><path class="cls-8" d="M304.65,351.92q-1.18,0-2.52-.12Q303.46,351.89,304.65,351.92Z"/><path class="cls-8" d="M306.86,351.91c-.69,0-1.43,0-2.21,0C305.43,351.94,306.17,351.93,306.86,351.91Z"/><path class="cls-8" d="M316.3,349.16c-.13.13-.27.25-.44.39C316,349.41,316.17,349.29,316.3,349.16Z"/><path class="cls-8" d="M313.12,351a17.75,17.75,0,0,1-1.9.5A17.75,17.75,0,0,0,313.12,351Z"/><path class="cls-8" d="M315.6,349.75c-.19.13-.41.27-.65.41C315.19,350,315.41,349.88,315.6,349.75Z"/><path class="cls-8" d="M294,350.68c-.77-.17-1.48-.34-2.15-.52C292.54,350.34,293.25,350.51,294,350.68Z"/><path class="cls-8" d="M286.56,348.09c-3.44-1.95-3.56-3.86-3.56-3.86h0S283.12,346.14,286.56,348.09Z"/><path class="cls-8" d="M290,349.6a20.85,20.85,0,0,1-3.46-1.51A20.85,20.85,0,0,0,290,349.6Z"/><path class="cls-6" d="M398.56,421.56c-.21-3.68-.46-7.22-.75-10.6-9.92-1.35-20.72-3.78-25.91-3.79-10.43,0-28.85-3.08-57.78-6.62-29.27-3.58-46.45-6.93-73.4-9.64-14.33-1.44-33.43-3.89-48.31-5.9-1.52,4.1-3.06,8.36-4.61,12.73,15.61,1.13,38.48,2.75,47.3,3.17C247.75,401.51,367,419.94,398.56,421.56Z"/><path class="cls-7" d="M240.72,390.91c27,2.71,44.13,6.06,73.4,9.64,28.93,3.54,47.35,6.59,57.78,6.62,5.19,0,16,2.44,25.91,3.79-.83-9.42-2-17.51-3.7-23.39-40.27-3.63-143.39-19.48-155.11-20-7.32-.35-24.35-1.53-38.86-2.56-2.43,6-5,12.75-7.73,20C207.29,387,226.39,389.47,240.72,390.91Z"/><path class="cls-7" d="M398.56,421.56C367,419.94,247.75,401.51,235.1,400.91c-8.82-.42-31.69-2-47.3-3.17-2.55,7.14-5.12,14.56-7.67,22.06-.06.17-.12.34-.17.51l3.26.38L399.35,446C399.24,437.52,399,429.25,398.56,421.56Z"/><path class="cls-9" d="M236.29,269s-2.07-11.81-11.07-8.72-11,32.41-.12,33.68c8.53,1,10-5.07,10-5.07Z"/><path class="cls-9" d="M379.66,285.74s4.74-11,12.78-5.93,3.26,34.09-7.66,32.8c-8.53-1-8.6-7.25-8.6-7.25Z"/><path class="cls-10" d="M228.06,268.43a4.48,4.48,0,0,0-5.27,4.91c0,5.7-.23,14.46,3.11,13.57s4.12-3.56,4.56-7.06S231.09,269.48,228.06,268.43Z"/><path class="cls-10" d="M388.33,287.2a4.48,4.48,0,0,1,4,6c-1.33,5.54-3.11,14.12-6.16,12.48s-3.19-4.41-2.8-7.91S385.15,287.51,388.33,287.2Z"/><path class="cls-9" d="M237.86,218.54c-2.1.37-4.65,10.08-4.9,12.2l-3.2,27.35c-3.37,28.76,11.23,70.4,40,73.77l65.32,7.65c28.76,3.37,49.7-34.12,53.06-62.88l3.27-27.9c.3-2.55-.53-12.87-3.06-13.33C370.89,232.23,262.09,214.24,237.86,218.54Z"/><path class="cls-11" d="M319.34,175.86a52.94,52.94,0,0,0-25.69-14.66c-12.88-2.94-22.72-3.32-43.65,9.82-20.5,12.86-23.59,36.68-25.22,50.59-2.63,22.41,11.52,59.45,11.52,59.45s-2.87-21.66.38-40.87c1.57-9.36,12.25-5.29,23.37-13.84s25.69,8.83,35.13,8.58c10.6-.29,68.9-7.88,74.48,5.64s18,18,16,27.08-9.53,29.78-9.53,29.78,22-26.68,25.58-57.9c.71-6.2,1.38-11.15,1.88-15.34,1.54-12.89-3.58-24.05-5.56-32-2.08-8.33-15-20.11-28.78-23.28C354.14,165.44,339.44,163.86,319.34,175.86Z"/><ellipse class="cls-10" cx="306.37" cy="289.38" rx="2.71" ry="7.2" transform="translate(-16.67 560.02) rotate(-83.32)"/><path class="cls-12" d="M293.56,272.52c-1.48,12.53-8,17.57-20.65,16.32-10.58-1-18.64-7.22-16.33-20.65,2-11.71,9.18-18.18,20.66-16.33C291.24,254.12,295,260.49,293.56,272.52Z"/><path class="cls-11" d="M290.34,272.14c-1.23,10.34-6.64,14.5-17.06,13.48-8.73-.86-15.39-6-13.48-17.06,1.66-9.67,7.58-15,17.05-13.48C288.42,256.94,291.51,262.21,290.34,272.14Z"/><path class="cls-12" d="M290.79,263.8c-.55,4.63-3,6.49-7.64,6-3.9-.38-6.88-2.67-6-7.63.74-4.33,3.39-6.72,7.64-6C289.93,257,291.32,259.35,290.79,263.8Z"/><path class="cls-12" d="M360,280.29c-1.48,12.53-8,17.57-20.66,16.33-10.57-1-18.63-7.23-16.32-20.66,2-11.71,9.18-18.17,20.65-16.32C357.67,261.89,361.41,268.27,360,280.29Z"/><path class="cls-11" d="M356.76,279.91c-1.22,10.35-6.63,14.51-17.05,13.48-8.73-.86-15.39-6-13.48-17.05,1.66-9.67,7.58-15,17-13.48C354.85,264.72,357.94,270,356.76,279.91Z"/><path class="cls-12" d="M357.22,271.57c-.55,4.64-3,6.5-7.64,6-3.91-.39-6.89-2.67-6-7.64.74-4.33,3.39-6.72,7.63-6C356.36,264.77,357.75,267.13,357.22,271.57Z"/><path class="cls-11" d="M293.41,246.8c-.27-2.55-12.92-8.22-19.19-7.32s-17.62,5.81-16.78,7.62,12-2.15,17.36-2.21S293.87,251.08,293.41,246.8Z"/><path class="cls-11" d="M328.82,250.94c.85-2.41,14.46-5,20.35-2.68S365,258,363.74,259.55s-11.18-4.87-16.38-6.17S327.38,255,328.82,250.94Z"/><path class="cls-13" d="M283.32,300.11s1.09,7.67,7.52,11.11c4.89,2.62,20.81,5,26.76,2.78s8.72-8.86,8.72-8.86Z"/><path class="cls-12" d="M288.14,300.67s3.55,4.69,16.19,6.17,16.91-2.29,16.91-2.29Z"/><path class="cls-14" d="M293.27,312.23a60.54,60.54,0,0,0,20.47,2.52,16.22,16.22,0,0,0-9.93-4.62A15.84,15.84,0,0,0,293.27,312.23Z"/><path class="cls-15" d="M257,291.06a27.22,27.22,0,0,0-21.87,7.24c6.49,17.3,18.28,31.64,34.66,33.56l7.11.83A27.27,27.27,0,0,0,257,291.06Z"/><path class="cls-15" d="M354.05,302.43a27.27,27.27,0,0,0-29,35.91l10,1.17c16.08,1.88,29.71-9,39.2-24A27.19,27.19,0,0,0,354.05,302.43Z"/><path class="cls-1" d="M308.5,351.82l-.32,0Z"/><path class="cls-1" d="M312.34,351.18l-.21.06Z"/><path class="cls-1" d="M314.13,350.57c-.3.13-.64.26-1,.38C313.49,350.83,313.83,350.7,314.13,350.57Z"/><path class="cls-1" d="M309.67,351.7c.56-.07,1.08-.16,1.55-.25-.48.09-1,.18-1.56.25Z"/><path class="cls-1" d="M290,349.6a20.85,20.85,0,0,1-3.46-1.51A14.38,14.38,0,0,0,290,349.6Z"/><path class="cls-1" d="M315.6,349.75l.26-.2h0Z"/><path class="cls-7" d="M315.6,349.75c-.19.13-.41.27-.65.41C315.19,350,315.41,349.88,315.6,349.75Z"/><path class="cls-7" d="M316.3,349.16c-.13.13-.27.25-.43.39C316,349.41,316.17,349.29,316.3,349.16Z"/><path class="cls-7" d="M313.12,351l-.78.23Z"/><path class="cls-7" d="M309.66,351.7c-.36.05-.76.08-1.16.12C308.9,351.78,309.3,351.75,309.66,351.7Z"/><path class="cls-7" d="M292.91,350.42c.71.18,1.48.34,2.31.49-.42-.07-.81-.15-1.2-.23Z"/><path class="cls-9" d="M282.08,320.88l.84,21.43.08,1.92s.12,1.91,3.56,3.86A20.85,20.85,0,0,0,290,349.6c.57.19,1.19.38,1.85.56l1,.26,1.11.26c.39.08.78.16,1.2.23.82.16,1.7.3,2.63.43l1.46.19c1,.11,1.94.2,2.82.27s1.73.1,2.52.12,1.52,0,2.21,0c.47,0,.9,0,1.32-.07l.32,0c.4,0,.8-.07,1.16-.12.57-.07,1.08-.16,1.56-.25l.91-.21.21-.06.78-.23c.37-.12.71-.25,1-.38s.57-.27.82-.41.46-.28.65-.41l.27-.2c.16-.14.3-.26.43-.39a2.65,2.65,0,0,0,.68-1l.32-1.17,5.85-21.36Z"/><path class="cls-7" d="M308.18,351.84c-.42,0-.85.06-1.32.07C307.33,351.9,307.76,351.87,308.18,351.84Z"/><path class="cls-7" d="M312.13,351.24l-.91.21Z"/><path class="cls-7" d="M297.85,351.34c-.93-.13-1.81-.27-2.63-.43C296,351.07,296.92,351.21,297.85,351.34Z"/></g><path class="cls-16" d="M319,109.06l-7.58-54.62a13.3,13.3,0,0,1-15-11.34L132.06,65.91a13.31,13.31,0,0,1-11.35,15l7.58,54.61a13.31,13.31,0,0,1,15,11.34l164.32-22.81A13.3,13.3,0,0,1,319,109.06Z"/><path class="cls-17" d="M153.52,74.23l.24,1.46,124.4-17.27a7.55,7.55,0,0,1,8.52,6.44l5.68,40.9a7.58,7.58,0,0,1-6.44,8.52L161.51,131.55a7.56,7.56,0,0,1-8.52-6.44l-5.67-40.9a7.56,7.56,0,0,1,6.41-8.52l-.21-1.46m0,0a9,9,0,0,0-7.66,10.18l5.68,40.91A9,9,0,0,0,161.72,133l124.4-17.27h0a9.06,9.06,0,0,0,7.67-10.18l-5.68-40.9A9,9,0,0,0,278,57L153.55,74.23Z"/><path class="cls-17" d="M190.23,88.77,193,93a3.56,3.56,0,0,0,.63.76,1.17,1.17,0,0,0,.65.18c.55,0,.86.24.93.7a1.27,1.27,0,0,1-.83,1.32,10,10,0,0,1-3.19.81,23.72,23.72,0,0,1-3.8.31,1.76,1.76,0,0,1-1-.28,1,1,0,0,1-.43-.7.75.75,0,0,1,.1-.55,1.65,1.65,0,0,1,.6-.44.63.63,0,0,0,.44-.68c-.06-.5-.41-.75-1-.76a20.75,20.75,0,0,0-2.78.25,4.89,4.89,0,0,0-1.76.43.88.88,0,0,0-.26.45,1.47,1.47,0,0,0-.06.58c0,.16.07.27.14.3a2.27,2.27,0,0,0,.66.16.82.82,0,0,1,.8.72c.12.89-.88,1.48-3,1.78a10.36,10.36,0,0,1-2.72.12,1,1,0,0,1-.93-.92.81.81,0,0,1,.1-.57,1.63,1.63,0,0,1,.58-.43,2.53,2.53,0,0,0,1-.88,11.58,11.58,0,0,0,.79-2.15l1.11-3.7a26.16,26.16,0,0,0,.78-3,6.77,6.77,0,0,0,.05-1.9,5.92,5.92,0,0,1-.07-1.36,1.75,1.75,0,0,1,.38-.81,2.68,2.68,0,0,1,1.87-1.06,3.27,3.27,0,0,1,2.29.59C186.14,83,187.86,85.11,190.23,88.77Zm-7.63,2.5,2.2-.3q.62-.09.57-.36a5.7,5.7,0,0,0-1.1-1.7,5.87,5.87,0,0,0-.7-.81.61.61,0,0,0-.46-.17c-.27,0-.46.32-.57.85,0,.07-.1.35-.22.84a6.31,6.31,0,0,0-.28,1.44C182.07,91.25,182.25,91.32,182.6,91.27Z"/><path class="cls-17" d="M201.12,95.18l-.81.12c-.47.06-1,.16-1.58.28l-.76.16a2.07,2.07,0,0,1-1.27-.18,1.08,1.08,0,0,1-.6-.85.83.83,0,0,1,.12-.64,1.46,1.46,0,0,1,.63-.45,1,1,0,0,0,.56-.45,2.78,2.78,0,0,0,.11-1c0-.57-.12-1.68-.29-3.31s-.38-3.26-.6-4.86a3.73,3.73,0,0,0-.32-1.24,1.09,1.09,0,0,0-.76-.41,1,1,0,0,1-.92-.9,1,1,0,0,1,.42-.93A3,3,0,0,1,196.5,80l.74-.09,1.38-.16c1.07-.15,2.28-.35,3.62-.6.28-.06.64-.12,1.07-.18a11.8,11.8,0,0,1,4.15,0,6.43,6.43,0,0,1,3.77,2.49,9.61,9.61,0,0,1,1.58,6.8,7.77,7.77,0,0,1-.69,2.36,7,7,0,0,1-3.23,3.15,9,9,0,0,1-2.82.85l-1.37.15-1.18.13C202.61,95,201.81,95.09,201.12,95.18Zm.67-12.53L203,91.36a1.36,1.36,0,0,0,.44,1,1.48,1.48,0,0,0,1.06.16c2.19-.31,3.05-2.12,2.59-5.46a9.8,9.8,0,0,0-1.36-4.17,3,3,0,0,0-3.09-1.28,1.11,1.11,0,0,0-.73.32A1,1,0,0,0,201.79,82.65Z"/><path class="cls-17" d="M226,87,225,90.2a5.43,5.43,0,0,1-.42,1.11.64.64,0,0,1-.44.33.56.56,0,0,1-.46-.16,5.6,5.6,0,0,1-.71-.91c-.38-.53-.69-1-.95-1.42L220.11,86c-.27-.44-.51-.64-.74-.61s-.34.25-.31.65c.07.89.16,1.72.26,2.47a6.94,6.94,0,0,0,.34,1.57.89.89,0,0,0,.25.33,6.09,6.09,0,0,0,.76.31.69.69,0,0,1,.47.61c.11.84-.9,1.41-3.06,1.71-1.81.25-2.78,0-2.89-.85a.6.6,0,0,1,.08-.48,3.45,3.45,0,0,1,.66-.52.92.92,0,0,0,.44-.53,4.43,4.43,0,0,0,.06-1.17c0-.61-.09-1.6-.22-3S216,84,215.82,83a7.31,7.31,0,0,0-.63-2.45.91.91,0,0,0-.28-.3,2.36,2.36,0,0,0-.53-.23c-.57-.18-.88-.47-.94-.88a1.09,1.09,0,0,1,.2-.76,1.63,1.63,0,0,1,.73-.57,9.94,9.94,0,0,1,1.29-.44,10.35,10.35,0,0,1,1.38-.3,6.44,6.44,0,0,1,2.08,0,1.23,1.23,0,0,1,.5.24,5.35,5.35,0,0,1,.59.72l2.94,4a5.3,5.3,0,0,0,.65.79.49.49,0,0,0,.43.1.54.54,0,0,0,.37-.22,2.46,2.46,0,0,0,.33-.69l1.16-3.31.27-.83a4,4,0,0,1,.88-1.65,4.69,4.69,0,0,1,2.44-.83c2.12-.3,3.25,0,3.38,1a.93.93,0,0,1-.05.54,2.1,2.1,0,0,1-.44.55,1.76,1.76,0,0,0-.49,1.22,24.18,24.18,0,0,0,.26,3.82,42.39,42.39,0,0,0,1,5,1.87,1.87,0,0,0,.31.69,3.32,3.32,0,0,0,.81.47.84.84,0,0,1,.5.67c.07.52-.22.94-.89,1.26a5,5,0,0,1-1.1.39c-.4.09-1,.2-1.83.31a10.66,10.66,0,0,1-2.88.12c-.71-.1-1.11-.4-1.18-.89a.7.7,0,0,1,.08-.46,4.68,4.68,0,0,1,.61-.73,1.5,1.5,0,0,0,.27-1A16.67,16.67,0,0,0,227.8,86a5.73,5.73,0,0,0-.25-1.17.34.34,0,0,0-.39-.23c-.21,0-.4.2-.55.51A13.64,13.64,0,0,0,226,87Z"/><path class="cls-17" d="M239.08,74a12.82,12.82,0,0,1,2.45-.11q1.58.09,1.71,1.08a.68.68,0,0,1-.09.51,3,3,0,0,1-.7.59,1.46,1.46,0,0,0-.52,1.23,21.93,21.93,0,0,0,.31,3.44,37.71,37.71,0,0,0,.95,5.3,1.13,1.13,0,0,0,.31.47,2.23,2.23,0,0,0,.62.3,1.06,1.06,0,0,1,.88.87c.09.6-.32,1.08-1.2,1.43a15.29,15.29,0,0,1-3.58.86c-2.45.34-3.74,0-3.87-.88,0-.34.15-.69.59-1a1.33,1.33,0,0,0,.53-1,43.18,43.18,0,0,0-.55-5.48,13.86,13.86,0,0,0-.8-3.65,1.71,1.71,0,0,0-.87-.73,2.63,2.63,0,0,1-.69-.42.78.78,0,0,1-.23-.49.86.86,0,0,1,.36-.84,5.44,5.44,0,0,1,1.58-.74A14.05,14.05,0,0,1,239.08,74Z"/><path class="cls-17" d="M249.21,72.85l5.93-.83a7.61,7.61,0,0,0,1.71-.5,2.29,2.29,0,0,1,.58-.17c.61-.09,1.26.28,2,1.1a5.14,5.14,0,0,1,1.25,2.66,1.7,1.7,0,0,1-.4,1.52,1.8,1.8,0,0,1-1,.48,1.64,1.64,0,0,1-1.08-.18,3.54,3.54,0,0,1-1-1,4.72,4.72,0,0,0-.71-.83.69.69,0,0,0-.55-.14.61.61,0,0,0-.55.43,2.56,2.56,0,0,0,0,1.17l.87,6.3a3.68,3.68,0,0,0,.4,1.38,1.35,1.35,0,0,0,.86.57,2.6,2.6,0,0,1,.9.38.92.92,0,0,1,.31.6c.07.54-.24,1-.94,1.36a10.86,10.86,0,0,1-3.31.86,13.59,13.59,0,0,1-4.21.11c-.79-.15-1.23-.51-1.31-1.08a.82.82,0,0,1,.31-.77,5.18,5.18,0,0,1,.76-.38.89.89,0,0,0,.52-.56,4.46,4.46,0,0,0,.08-1.37c0-.6-.09-1.55-.22-2.87s-.26-2.46-.4-3.42a4.7,4.7,0,0,0-.35-1.41.55.55,0,0,0-.58-.36c-.29,0-.55.29-.77.75a6.75,6.75,0,0,1-1,1.69,1.82,1.82,0,0,1-1,.59,1.28,1.28,0,0,1-1.06-.31,1.75,1.75,0,0,1-.56-1.11,4.36,4.36,0,0,1,.1-1.58,6.12,6.12,0,0,1,.63-1.67q.69-1.26,1.53-1.38a3,3,0,0,1,.53,0c.41,0,.75,0,1,0S248.87,72.89,249.21,72.85Z"/><path class="cls-17" d="M201.75,98.47a8.18,8.18,0,0,1,5.29,1,8.65,8.65,0,0,1,2.78,2.62,8.08,8.08,0,0,1,1.39,3.48,7.29,7.29,0,0,1-1.09,5,8.4,8.4,0,0,1-3.53,3.09,9.6,9.6,0,0,1-2.9.88,8.91,8.91,0,0,1-3.84-.29,7.52,7.52,0,0,1-3.77-2.49,7.9,7.9,0,0,1-1.77-4.06,7.76,7.76,0,0,1,4.13-8.12A9.47,9.47,0,0,1,201.75,98.47Zm-.62,3.38a1.73,1.73,0,0,0-1.38,1.05,2.69,2.69,0,0,0-.22,1.56,10.32,10.32,0,0,0,.93,2.87,13,13,0,0,0,1.72,2.78,2.74,2.74,0,0,0,1,.76,1.93,1.93,0,0,0,1.09.18,1.7,1.7,0,0,0,1.29-.83,2.64,2.64,0,0,0,.29-1.76,11.2,11.2,0,0,0-.85-2.88,10.33,10.33,0,0,0-1.51-2.53,3.67,3.67,0,0,0-1.14-.94A2.13,2.13,0,0,0,201.13,101.85Z"/><path class="cls-17" d="M217.94,97.09l6.28,4.13a2.23,2.23,0,0,0,1.24.53c.39,0,.52-.49.41-1.33a7.35,7.35,0,0,0-.44-1.91,1.28,1.28,0,0,0-.82-.68,1.6,1.6,0,0,1-.68-.37,1,1,0,0,1-.27-.6c-.08-.63.29-1.09,1.13-1.39a9.52,9.52,0,0,1,1.83-.37A9.41,9.41,0,0,1,229,95q1.08.18,1.2,1a1.19,1.19,0,0,1-.69,1.22,1.68,1.68,0,0,0-.42.33.81.81,0,0,0-.17.36,9,9,0,0,0,.07,2.86l.51,3.67c.08.56.19,1.33.34,2.31a11.74,11.74,0,0,1,.16,2.89c-.11.76-.42,1.17-1,1.24a1.07,1.07,0,0,1-.62-.06,5.91,5.91,0,0,1-.93-.56l-7.5-5a2,2,0,0,0-1.25-.47c-.46.07-.6.73-.42,2a8.6,8.6,0,0,0,.47,2.12,1.36,1.36,0,0,0,.83.74c.54.18.83.47.89.86.14,1-.91,1.72-3.15,2a5.61,5.61,0,0,1-2.41-.08,1.25,1.25,0,0,1-1-1,.86.86,0,0,1,.08-.6,2.79,2.79,0,0,1,.63-.61,1.44,1.44,0,0,0,.49-1.21,32,32,0,0,0-.39-4.2,19.21,19.21,0,0,0-.92-4.19,1.93,1.93,0,0,0-.42-.67,1.84,1.84,0,0,0-.69-.36,2.17,2.17,0,0,1-.77-.39.89.89,0,0,1-.28-.55c-.1-.72.46-1.26,1.67-1.62a17,17,0,0,1,2.19-.39,4.55,4.55,0,0,1,1.34,0A3.47,3.47,0,0,1,217.94,97.09Z"/><path class="cls-17" d="M233.71,94.35l5.79-.8c1.17-.16,2-.3,2.55-.43a8.08,8.08,0,0,0,1.53-.51,1.24,1.24,0,0,1,.36-.12,1.27,1.27,0,0,1,1.12.48,4.15,4.15,0,0,1,1.09,2.38,1.88,1.88,0,0,1-.15,1.19,1,1,0,0,1-.79.54.94.94,0,0,1-.6-.07,2.83,2.83,0,0,1-.65-.6,2.37,2.37,0,0,0-1.4-.83,8.72,8.72,0,0,0-2.53.09c-.86.12-1.36.34-1.51.68a1.6,1.6,0,0,0-.08.69q0,.42.27,2.13c.06.45.17.72.34.81a2.68,2.68,0,0,0,1.2,0,1,1,0,0,0,.66-.29,1.14,1.14,0,0,0,.18-.74,5.52,5.52,0,0,1,0-.92,1,1,0,0,1,.26-.46.79.79,0,0,1,.52-.28,1,1,0,0,1,.85.33,3.21,3.21,0,0,1,.56,1.1,9,9,0,0,1,.4,1.7,6.68,6.68,0,0,1-.15,3,1,1,0,0,1-.83.75.61.61,0,0,1-.56-.12,1.91,1.91,0,0,1-.34-.79,1.34,1.34,0,0,0-1.66-1.06.72.72,0,0,0-.65.42,2.69,2.69,0,0,0,0,1.21c.05.35.14.8.26,1.36a7,7,0,0,0,.31,1.08.7.7,0,0,0,.62.39,6.22,6.22,0,0,0,1.58-.08,5.91,5.91,0,0,0,2.48-.79,3.3,3.3,0,0,0,1.18-1.76,2.86,2.86,0,0,1,.45-1,1,1,0,0,1,.62-.32,1,1,0,0,1,.84.3,1.7,1.7,0,0,1,.46,1,5.54,5.54,0,0,1-.12,1.74,8.65,8.65,0,0,1-.6,1.92,2.35,2.35,0,0,1-.36.57.75.75,0,0,1-.41.19,5.28,5.28,0,0,1-.63,0,13.16,13.16,0,0,0-2,.09l-9.54,1.33a1.43,1.43,0,0,1-.93-.13.87.87,0,0,1-.41-.67.67.67,0,0,1,.07-.49,2.28,2.28,0,0,1,.57-.46,1.25,1.25,0,0,0,.45-.43,1.6,1.6,0,0,0,.16-.66,23.11,23.11,0,0,0-.26-4.64c-.4-2.89-.84-4.7-1.3-5.4a1,1,0,0,0-.29-.29,2.81,2.81,0,0,0-.6-.13.83.83,0,0,1-.76-.77,1,1,0,0,1,.13-.67.94.94,0,0,1,.51-.45A9.13,9.13,0,0,1,233.71,94.35Z"/><path class="cls-18" d="M217.19,362.74h0A15.79,15.79,0,0,0,195.51,368a15.6,15.6,0,0,0-1.62,3.59c-3.76-12.57-6.38-21.22-6.41-21.31l-.12-.38a6.09,6.09,0,0,0-2.28-3.18l-22-15.74c-1.7-8.64-3.87-11.28-5.81-12.68a7.94,7.94,0,0,0-6-1.45c-1.47.24-6.28,1.5-16.89,4.31-5,1.32-10.15,2.68-12.45,3.24-9.19,2.23-31.37,8.94-33.9,9.71l-.55.17A6.05,6.05,0,0,0,83.54,338L82,342.31a6.1,6.1,0,0,0-.29,3.08l1.25,7.47-10,32.36a6.1,6.1,0,0,0-.08,3.31l.1.4,2.57,9.93a14.23,14.23,0,0,0-1.84-1.31A15.77,15.77,0,1,0,69,426.4l16.37,10c.61,2.32,1.23,4.66,1.85,7,15.11,56.86,15.94,57.58,18.16,59.51s6.53,3.71,12.84,5.33c2.54,1.08,6.37,1,27.36-4l2.66-.64c13.51-3.27,29.67-7.55,43.21-11.44,28.19-8.1,28.78-9.49,30.2-12.83,1.34-3.11,2.22-5.17-16.19-68.56q-.68-2.35-1.37-4.69l8.85-14.52a15.78,15.78,0,0,0,4.28-28.75Z"/><path class="cls-19" d="M208.51,384.66l-15.32,25.12a4,4,0,1,1-6.82-4.15l15.32-25.13a8.45,8.45,0,1,1,6.82,4.16Z"/><path class="cls-20" d="M191,412.79a5.23,5.23,0,0,1-5.71-7.81l14.95-24.52a9.7,9.7,0,1,1,8.94,5.45l-14.95,24.52A5.2,5.2,0,0,1,191,412.79Zm16.26-43.59a7.21,7.21,0,0,0-4.52,10.67l.38.64-15.71,25.76a2.75,2.75,0,1,0,4.7,2.87l15.71-25.76.74,0a7.22,7.22,0,1,0-1.3-14.22Z"/><path class="cls-19" d="M73.91,411.49,99,426.81a4,4,0,0,1-4.16,6.82L69.75,418.31a8.46,8.46,0,1,1,4.16-6.82Z"/><path class="cls-20" d="M98.19,435.3a5.22,5.22,0,0,1-4-.61L69.71,419.74a9.7,9.7,0,1,1,5.45-8.94l24.52,14.95a5.23,5.23,0,0,1,1.75,7.19A5.18,5.18,0,0,1,98.19,435.3ZM69.76,416.86l25.77,15.71a2.75,2.75,0,1,0,2.86-4.7L72.63,412.16l0-.74a7.22,7.22,0,1,0-14.22,1.3,7.22,7.22,0,0,0,10.67,4.52Z"/><path class="cls-21" d="M92.79,352.69s-5.71,25.27-5.9,26.43l-7,7.93,10.43-33.69-1.48-8.86L90.14,341Z"/><path class="cls-22" d="M120.73,501.4s-8.43-2.08-10.64-4S79.93,387.05,79.93,387.05l7-7.93S118.1,499.17,120.73,501.4Z"/><path class="cls-23" d="M180.56,352.38s36.34,119.56,34.42,124c-1.39,3.25-91.63,27.19-94.25,25S86.89,379.12,86.89,379.12c.19-1.16,5.9-26.43,5.9-26.43L90.14,341s24.13-7.34,33.58-9.62c5.44-1.32,26.52-7.06,28.72-7.42s4,11.16,4,11.16Z"/><path class="cls-20" d="M146.78,497.63l-2.64.63c-19.95,4.77-23,4.67-23.89,4.21-1.51-.38-8.69-2.26-10.91-4.18-.58-.5-1.65-1.43-16.27-56.48-7.19-27-14.19-54.2-14.26-54.47l-.09-.32.1-.31,10.35-33.43-1.48-8.89,1.56-4.3.55-.17c.24-.07,24.12-7.32,33.56-9.61l.09,0c2.26-.55,7.23-1.87,12.48-3.26,7.71-2,15-4,16.32-4.18a1.86,1.86,0,0,1,1.44.37c2,1.47,3.37,8.47,3.83,11.27l24,17.18.11.37c.09.3,9.19,30.25,17.94,60.35,17.8,61.3,16.85,63.52,16.44,64.47-.33.78-.89,2.09-26.3,9.39C176.29,490.11,160.1,494.4,146.78,497.63Zm-25.46,2.75c2.33.28,19.29-3.27,46.78-10.57,27.2-7.21,43.62-12.49,45.8-14,.06-1.77-1.69-11.8-16.77-63.64-8.13-28-16.5-55.59-17.57-59.12l-24.18-17.28-.07-.48c-.74-4.72-2.06-9.33-2.89-10.16-1.71.34-9.23,2.33-15.9,4.1-5.26,1.39-10.24,2.71-12.53,3.26l-.09,0c-8.57,2.07-29.23,8.3-32.87,9.41l-1,2.64,1.48,8.83-.09.26L81.13,387.08C92,429.32,108.81,492.81,110.94,496.61c1.58,1.25,7,2.9,10.07,3.66l.26.07ZM213.88,476Zm.17-.31ZM111,496.68Z"/><path class="cls-24" d="M174.45,354.76a.39.39,0,0,0-.49-.11,36.3,36.3,0,0,1-3.56,1.21l-1.1.33-46.92,12.56c-.6.15-1.2.31-1.79.48l-13.16,3.53c-6.5,1.16-14.8,3.65-14.88,3.68a.3.3,0,0,0-.24.38.36.36,0,0,0,.39.18l.07,0c.09,0,8.68-2.6,15.17-3.72a68.55,68.55,0,0,0,9.64-2.49c2-.64,3.94-1.25,6-1.71,1.13-.25,2.48-.53,3.9-.82,5-1,11.82-2.47,17.44-4.18,3-.92,6.41-1.76,9.71-2.57,4.63-1.13,8.63-2.11,10.58-3.09a31.07,31.07,0,0,1,5.36-2,34.86,34.86,0,0,0,3.65-1.25C174.46,355.08,174.54,354.91,174.45,354.76Z"/><path class="cls-24" d="M153.48,336.72a55.39,55.39,0,0,1-7.79,1.62l-.15,0a45.45,45.45,0,0,0-8.35,2.45,44,44,0,0,1-5.28,1.69c-.79.17-1.73.35-2.73.54A95,95,0,0,0,117,346c-2.08.72-4.29,1.28-6.25,1.77-2.85.73-5.31,1.35-6.69,2.24a17.92,17.92,0,0,1-4.47,1.82,19.65,19.65,0,0,0-3.1,1.15.27.27,0,0,0-.13.37.31.31,0,0,0,.31.13l.1,0a19,19,0,0,1,3-1.11l.93-.29,47.67-13.58a50.73,50.73,0,0,0,5.3-1.23.27.27,0,0,0,.2-.34A.3.3,0,0,0,153.48,336.72Z"/><path class="cls-14" d="M146.28,402.62a12.5,12.5,0,0,1,10.7,1.62,25.24,25.24,0,0,1-18.36,4.82C138.82,408.55,140.58,404.44,146.28,402.62Z"/><circle class="cls-25" cx="115.11" cy="397.24" r="3.41"/><circle class="cls-25" cx="169.72" cy="382.71" r="3.41"/><path class="cls-13" d="M160.26,391.16c2.57,2.1,2.43,8.4-3.26,13.08h0a12.5,12.5,0,0,0-10.7-1.62c-5.7,1.82-7.46,5.93-7.66,6.44-8.22-1.42-11.87-8-9.91-11.68,2.81-5.25,8.55-1.37,16.17-2.49C149.72,394.16,154.88,386.72,160.26,391.16Z"/><circle class="cls-26" cx="113.1" cy="417.93" r="13.27"/><circle class="cls-26" cx="183.85" cy="398.85" r="13.27"/><path class="cls-27" d="M499.54,136.6c4.89-2.26,10.07-5.15,12.23-9.29,2.61-5,0-11.91-3.26-16-6.19-7.71-19.84-9.59-26.6-2,.58-15-11.32-28.64-26.59-30.16C443,78,427,85.28,425.9,98.21c-6.3-7.38-19.45-7.93-25.68.1-4.05,5.22-3.18,13.28,1,17.6a21.62,21.62,0,0,0-7,3.31,17.34,17.34,0,0,0-7.1,15.36c1.09,15.11,17.63,17.12,29.49,13.24-5.77,24.41,44.6,34.46,57,14.87,8.66,9.19,28.6,13.12,36.7,1.76C517.86,153.94,510.7,139.72,499.54,136.6Z"/></svg>